<svg width="27" height="27" viewBox="0 0 27 27" xmlns="http://www.w3.org/2000/svg"><title>1DED1C75-040F-407F-B72F-4CF7B6D5F3CE</title><g fill="none" fill-rule="evenodd"><path d="M13.5 27C20.96 27 27 20.96 27 13.5S20.96 0 13.5 0 0 6.04 0 13.5 6.04 27 13.5 27z" fill="#76C81C"/><path d="M18 16.34V7c0-.56-.45-1-1-1H8c-.56 0-1 .45-1 1v13c0 .55.45 1 1 1h6.4l-3.06-2.96 3.15-3.1 2.42 2.43L18 16.34zM9 9h7v1H9V9zm0 2h7v1H9v-1zm0 2h7v1H9v-1zm0 2h2v1H9v-1zm5.5 1.54L13 18l4 4 6.6-6.43L22 14l-5 5-2.5-2.46z" fill="#FFF"/></g></svg>
