<svg aria-hidden="true" style="position: absolute; width: 0; height: 0; overflow: hidden;" version="1.1" xmlns="http://www.w3.org/2000/svg" xmlns:xlink="http://www.w3.org/1999/xlink">
<defs>
<symbol id="icon-360" viewBox="0 0 32 32">
<path d="M5.203 18.689c-0.282-0.517-0.931-0.708-1.447-0.426s-0.708 0.93-0.426 1.447c1.329 2.435 4.481 4.293 8.405 5.019l0.494 0.085v0.786c0 0.404 0.228 0.773 0.589 0.954 0.151 0.076 0.315 0.113 0.477 0.113 0.17 0 0.339-0.041 0.492-0.12l0.148-0.093 2.133-1.6c0.268-0.201 0.427-0.517 0.427-0.853 0-0.28-0.11-0.546-0.302-0.744l-0.125-0.11-2.133-1.6c-0.324-0.243-0.756-0.282-1.117-0.101-0.309 0.155-0.521 0.448-0.576 0.783l-0.014 0.171v0.25c-3.312-0.594-6.004-2.087-7.026-3.961zM28.244 18.263c-0.517-0.282-1.166-0.091-1.447 0.426-0.926 1.697-3.243 3.116-6.199 3.797-0.574 0.132-0.932 0.705-0.8 1.279 0.114 0.493 0.553 0.827 1.038 0.827 0.079 0 0.16-0.009 0.241-0.027 3.593-0.828 6.361-2.598 7.593-4.854 0.282-0.517 0.092-1.165-0.426-1.447zM6.934 7.466c-0.589 0-1.067 0.478-1.067 1.067s0.478 1.067 1.067 1.067h2.667v1.6h-2.667c-0.589 0-1.067 0.478-1.067 1.067s0.478 1.067 1.067 1.067h2.667v1.6h-2.667c-0.589 0-1.067 0.478-1.067 1.067s0.478 1.067 1.067 1.067h2.667c1.177 0 2.133-0.957 2.133-2.133v-5.333c0-1.177-0.957-2.133-2.133-2.133h-2.667zM15.467 7.466c-1.177 0-2.133 0.957-2.133 2.133v5.333c0 1.177 0.957 2.133 2.133 2.133h1.6c1.177 0 2.133-0.957 2.133-2.133v-1.6c0-1.177-0.957-2.133-2.133-2.133h-1.6v-1.6h2.667c0.589 0 1.067-0.478 1.067-1.067s-0.478-1.067-1.067-1.067h-2.667zM22.934 7.466c-1.177 0-2.133 0.957-2.133 2.133v5.333c0 1.177 0.957 2.133 2.133 2.133h1.6c1.177 0 2.133-0.957 2.133-2.133v-5.333c0-1.177-0.957-2.133-2.133-2.133h-1.6zM15.467 13.333h1.6v1.6h-1.6v-1.6zM22.934 9.6h1.6v5.333h-1.6v-5.333z"></path>
</symbol>
<symbol id="icon-bag" viewBox="0 0 32 32">
<path d="M26.667 26.667c0 0.736-0.597 1.333-1.333 1.333h-18.667c-0.736 0-1.333-0.597-1.333-1.333v-12h-4l13.769-12.517c0.509-0.463 1.286-0.463 1.795 0l13.769 12.517h-4v12zM10.667 20v2.667h10.667v-2.667h-10.667z"></path>
</symbol>
    <symbol id="icon-premium-icon" viewBox="0 0 39 32">
        <path fill="#ffa238" style="fill: var(--color1, #ffa238)" d="M35.042 25.986h-30.661v2.176c0 1.201 0.982 2.176 2.191 2.176h26.282c1.206 0 2.191-0.975 2.191-2.176zM35.018 21.61l2.796-15.385c0.023-0.119 0.036-0.255 0.036-0.395 0-1.209-0.98-2.188-2.188-2.188-0.697 0-1.318 0.326-1.719 0.833l-0.004 0.005-6.582 8.379-5.701-11.402c-0.367-0.723-1.105-1.209-1.957-1.209s-1.59 0.486-1.951 1.197l-0.006 0.012-5.701 11.402-6.582-8.379c-0.404-0.51-1.024-0.834-1.719-0.834-1.209 0-2.188 0.98-2.188 2.188 0 0.138 0.013 0.273 0.037 0.404l-0.002-0.014 2.796 15.385z"></path>
    </symbol>
<symbol id="icon-key" viewBox="0 0 32 32">
<path d="M21.133 12.267c-0.772 0-1.4-0.628-1.4-1.4s0.628-1.4 1.4-1.4c0.772 0 1.4 0.628 1.4 1.4s-0.628 1.4-1.4 1.4zM20.2 4.8c-3.86 0-7 3.14-7 7 0 1.013 0.214 1.988 0.635 2.905l-8.898 8.897c-0.087 0.088-0.136 0.207-0.136 0.33v1.867c0 0.201 0.129 0.379 0.319 0.443l2.8 0.933c0.245 0.081 0.509-0.051 0.59-0.296l0.861-2.578 2.578-0.86c0.14-0.046 0.249-0.156 0.295-0.296l0.873-2.617 4.475-2.237c0.834 0.336 1.711 0.507 2.61 0.507 3.86 0 7-3.14 7-7s-3.14-7-7-7z"></path>
</symbol>
<symbol id="icon-build" viewBox="0 0 32 32">
<path d="M17.711 14.041h3.422c0.495 0 0.896-0.41 0.896-0.918v-3.647c0-0.020 3.572-6.274 3.572-6.274l-17.6-0.002 3.576 6.218c-0.002 0.018-0.007 3.703-0.007 3.703 0 0.507 0.401 0.918 0.896 0.918h2.506c0 0-0.343 2.582 0.758 3.71 0.936 0.958 3.103 2.156 2.853 4.196s-2.18 2.264-3.206 1.881c-1.028-0.383-2.085-1.849-2.429-2.997s-1.274-2.327-2.116-2.198c-0.841 0.129-0.654 0.956-0.528 1.784 0.123 0.83 0.339 1.88 0.436 3.157 0.123 1.658 1.557 5.23 5.758 5.23s6.91-2.645 6.91-6.28c0-3.635-3.939-5.915-4.732-6.727s-0.964-1.403-0.964-1.752z"></path>
</symbol>
    <symbol id="icon-vipp" viewBox="0 0 38 32">
        <path  d="M28.236 0h-18.824l-9.412 11.428 18.824 20.572 18.824-20.572-9.412-11.428zM17.294 19.764l-5.060-13.172 3.852-0.004 2.83 9.748 2.95-9.748 3.546 0.004-5.072 13.168-3.048 0.004z"></path>
    </symbol>
    <symbol id="icon-fileicon" viewBox="0 0 25 32">
        <path fill="#6b86f3" style="fill: var(--color1, #6b86f3)" d="M16.462 10.092c-0.594-0.062-1.053-0.56-1.053-1.166 0-0.034 0.001-0.068 0.004-0.101l-0 0.004v-4.677l5.527 5.94zM16.88 24.882h-8.882c-0.818 0-1.481-0.663-1.481-1.481s0.663-1.481 1.481-1.481v0h8.882c0.818 0 1.481 0.663 1.481 1.481s-0.663 1.481-1.481 1.481v0zM7.996 15.998h4.437c0.818 0 1.479 0.667 1.479 1.488 0 0.002 0 0.003 0 0.005 0 0.818-0.662 1.481-1.479 1.484h-4.438c-0.818-0.003-1.479-0.666-1.479-1.484 0-0.002 0-0.004 0-0.006v0c0-0.821 0.661-1.488 1.479-1.488zM23.906 9.088l-6.578-7.408c-0.272-0.3-0.662-0.488-1.097-0.489h-11.853c-0.013-0-0.029-0-0.045-0-2.055 0-3.723 1.654-3.747 3.703l-0 0.002v22.222c0.025 2.051 1.693 3.703 3.747 3.703 0.016 0 0.031-0 0.047-0l-0.002 0h16.119c0.013 0 0.029 0 0.045 0 2.054 0 3.722-1.653 3.747-3.701l0-0.002v-17.038c-0.001-0.383-0.146-0.731-0.385-0.993l0.001 0.001z"></path>
    </symbol>
    <symbol id="icon-goldicon" viewBox="0 0 38 32">
        <path fill="#e97b4f" style="fill: var(--color1, #e97b4f)" d="M11.974 0c-0.871 0-1.66 0.353-2.232 0.924l-7.625 7.624c-0.572 0.571-0.926 1.361-0.926 2.233 0 0.813 0.308 1.555 0.813 2.115l-0.002-0.003 14.85 16.499c0.58 0.643 1.416 1.045 2.347 1.045s1.766-0.402 2.344-1.042l0.002-0.003 14.848-16.499c0.503-0.557 0.812-1.299 0.812-2.113 0-0.872-0.353-1.661-0.925-2.232l-7.625-7.625c-0.571-0.571-1.36-0.924-2.231-0.924v0z"></path>
    </symbol>
    <symbol id="icon-turn-notifications-on-button" viewBox="0 0 32 32">
        <path d="M8.533 3.2l-2.133-2.133c-3.657 2.743-6.095 7.010-6.4 11.886h3.048c0.305-4.114 2.286-7.619 5.486-9.752zM28.952 12.952h3.048c-0.305-4.876-2.59-9.143-6.248-11.886l-2.133 2.133c3.048 2.133 5.029 5.638 5.333 9.752zM25.905 13.714c0-4.724-3.2-8.533-7.619-9.6v-1.067c0-1.219-1.067-2.286-2.286-2.286s-2.286 1.067-2.286 2.286v1.067c-4.419 1.067-7.619 4.876-7.619 9.6v8.381l-3.048 3.048v1.524h25.905v-1.524l-3.048-3.048v-8.381zM16 31.238c0.152 0 0.457 0 0.61 0 1.067-0.152 1.829-0.914 2.133-1.829 0.152-0.305 0.305-0.762 0.305-1.219h-6.095c0 1.676 1.371 3.048 3.048 3.048z"></path>
    </symbol>
<symbol id="icon-calendar" viewBox="0 0 32 32">
<path d="M24 5.333h-1.333v-1.333c0-0.736-0.597-1.333-1.333-1.333s-1.333 0.597-1.333 1.333v1.333h-8v-1.333c0-0.736-0.597-1.333-1.333-1.333s-1.333 0.597-1.333 1.333v1.333h-1.333c-2.209 0-4 1.791-4 4v16c0 2.209 1.791 4 4 4h16c2.209 0 4-1.791 4-4v-16c0-2.209-1.791-4-4-4zM8 12h16c0.736 0 1.333 0.597 1.333 1.333v12c0 0.736-0.597 1.333-1.333 1.333h-16c-0.736 0-1.333-0.597-1.333-1.333v-12c0-0.736 0.597-1.333 1.333-1.333zM10.667 17.333c-0.736 0-1.333-0.597-1.333-1.333s0.597-1.333 1.333-1.333c0.736 0 1.333 0.597 1.333 1.333s-0.597 1.333-1.333 1.333zM10.667 22.667c-0.736 0-1.333-0.597-1.333-1.333s0.597-1.333 1.333-1.333c0.736 0 1.333 0.597 1.333 1.333s-0.597 1.333-1.333 1.333zM16 17.333c-0.736 0-1.333-0.597-1.333-1.333s0.597-1.333 1.333-1.333c0.736 0 1.333 0.597 1.333 1.333s-0.597 1.333-1.333 1.333zM16 22.667c-0.736 0-1.333-0.597-1.333-1.333s0.597-1.333 1.333-1.333c0.736 0 1.333 0.597 1.333 1.333s-0.597 1.333-1.333 1.333zM21.333 17.333c-0.736 0-1.333-0.597-1.333-1.333s0.597-1.333 1.333-1.333c0.736 0 1.333 0.597 1.333 1.333s-0.597 1.333-1.333 1.333zM21.333 22.667c-0.736 0-1.333-0.597-1.333-1.333s0.597-1.333 1.333-1.333c0.736 0 1.333 0.597 1.333 1.333s-0.597 1.333-1.333 1.333z"></path>
</symbol>
<symbol id="icon-chevron-down" viewBox="0 0 32 32">
<path d="M22.669 13.515c-0.001 0.363-0.151 0.71-0.413 0.96l-5.333 5.147c-0.518 0.508-1.348 0.508-1.867 0l-5.333-5.333c-0.338-0.338-0.47-0.831-0.347-1.293s0.485-0.823 0.947-0.947c0.462-0.124 0.955 0.008 1.293 0.347l4.387 4.4 4.4-4.24c0.52-0.517 1.36-0.517 1.88 0 0.211 0.212 0.343 0.488 0.378 0.782l0.009 0.178z"></path>
</symbol>
<symbol id="icon-chevron-left" viewBox="0 0 32 32">
<path d="M17.813 22.667c-0.363-0.001-0.71-0.151-0.96-0.413l-5.147-5.333c-0.508-0.518-0.508-1.348 0-1.867l5.333-5.333c0.338-0.338 0.831-0.47 1.293-0.347s0.823 0.485 0.947 0.947c0.124 0.462-0.008 0.955-0.346 1.293l-4.4 4.387 4.24 4.4c0.517 0.52 0.517 1.36 0 1.88-0.255 0.253-0.601 0.392-0.96 0.387v0z"></path>
</symbol>
<symbol id="icon-chevron-right" viewBox="0 0 32 32">
<path d="M12.838 22.667c0.363-0.001 0.71-0.151 0.96-0.413l5.147-5.333c0.508-0.518 0.508-1.348 0-1.867l-5.333-5.333c-0.338-0.338-0.831-0.47-1.293-0.347s-0.823 0.485-0.947 0.947c-0.124 0.462 0.008 0.955 0.347 1.293l4.4 4.387-4.24 4.4c-0.517 0.52-0.517 1.36 0 1.88 0.212 0.211 0.488 0.343 0.782 0.378l0.178 0.009z"></path>
</symbol>
<symbol id="icon-chevron-up" viewBox="0 0 32 32">
<path d="M22.669 18.491c-0.001-0.363-0.151-0.71-0.413-0.96l-5.333-5.147c-0.518-0.508-1.348-0.508-1.867 0l-5.333 5.333c-0.338 0.338-0.47 0.831-0.347 1.293s0.485 0.823 0.947 0.947c0.462 0.124 0.955-0.008 1.293-0.346l4.387-4.4 4.4 4.24c0.52 0.517 1.36 0.517 1.88 0 0.211-0.212 0.343-0.488 0.378-0.782l0.009-0.178z"></path>
</symbol>
<symbol id="icon-circle-up" viewBox="0 0 32 32">
<path d="M16 29.333c7.364 0 13.333-5.97 13.333-13.333s-5.97-13.333-13.333-13.333c-7.364 0-13.333 5.97-13.333 13.333 0 3.536 1.405 6.928 3.905 9.428s5.892 3.905 9.428 3.905zM11.080 13.52l4-3.813c0.058-0.056 0.126-0.102 0.2-0.133 0.063-0.057 0.135-0.102 0.213-0.133 0.323-0.143 0.691-0.143 1.013 0 0.164 0.063 0.313 0.159 0.44 0.28l4 4c0.523 0.523 0.523 1.37 0 1.893s-1.37 0.523-1.893 0l-1.72-1.733v7.453c0 0.736-0.597 1.333-1.333 1.333s-1.333-0.597-1.333-1.333v-7.547l-1.747 1.667c-0.534 0.508-1.379 0.487-1.887-0.047s-0.487-1.379 0.047-1.887v0z"></path>
</symbol>
<symbol id="icon-close" viewBox="0 0 32 32">
<path d="M17.88 16l5.733-5.72c0.523-0.523 0.523-1.37 0-1.893s-1.37-0.523-1.893 0l-5.72 5.733-5.72-5.733c-0.523-0.523-1.37-0.523-1.893 0s-0.523 1.37 0 1.893l5.733 5.72-5.733 5.72c-0.252 0.25-0.394 0.591-0.394 0.947s0.142 0.696 0.394 0.947c0.25 0.252 0.591 0.394 0.947 0.394s0.696-0.142 0.947-0.394l5.72-5.733 5.72 5.733c0.25 0.252 0.591 0.394 0.947 0.394s0.696-0.142 0.947-0.394c0.252-0.25 0.394-0.591 0.394-0.947s-0.142-0.696-0.394-0.947l-5.733-5.72z"></path>
</symbol>
<symbol id="icon-credit-card" viewBox="0 0 32 32">
<path d="M25.333 6.667h-18.667c-2.209 0-4 1.791-4 4v10.667c0 2.209 1.791 4 4 4h18.667c2.209 0 4-1.791 4-4v-10.667c0-2.209-1.791-4-4-4zM14.667 20h-5.333c-0.736 0-1.333-0.597-1.333-1.333s0.597-1.333 1.333-1.333h5.333c0.736 0 1.333 0.597 1.333 1.333s-0.597 1.333-1.333 1.333zM22.667 20h-2.667c-0.736 0-1.333-0.597-1.333-1.333s0.597-1.333 1.333-1.333h2.667c0.736 0 1.333 0.597 1.333 1.333s-0.597 1.333-1.333 1.333zM26.667 12h-21.333v-1.333c0-0.736 0.597-1.333 1.333-1.333h18.667c0.736 0 1.333 0.597 1.333 1.333v1.333z"></path>
</symbol>
<symbol id="icon-driller" viewBox="0 0 32 32">
<path d="M16 23.242v4.667c0 1.103-0.897 2-2 2v0h-10.667c-1.101 0-2-0.897-2-2v0-4.667h14.667zM14.937 3.242c1.221 0 2.427 0.196 3.584 0.583v0l2.255 0.751h3.068c0.761 0 1.448 0.424 1.789 1.105v0l0.78 1.561h4.92c0.368 0 0.667 0.299 0.667 0.667s-0.299 0.667-0.667 0.667v0h-4.921l-0.78 1.561c-0.341 0.681-1.027 1.105-1.789 1.105v0h-3.068l-2.255 0.751c-1.157 0.387-2.363 0.583-3.584 0.583v0h-2.364l-0.111 0.711c0.115-0.039 0.24-0.056 0.367-0.024 0.357 0.089 0.575 0.451 0.485 0.808v0l-0.667 2.667c-0.075 0.304-0.347 0.505-0.645 0.505-0.048 0-0.096-0.007-0.145-0.017v0l-0.452 2.941 4.065 1.743h-13.692l2.271-1.704 1.175-7.629h-3.223c-1.101 0-2-0.897-2-2v0-5.333c0-1.103 0.899-2 2-2v0zM7.333 8.575h-4c-0.368 0-0.667 0.299-0.667 0.667s0.299 0.667 0.667 0.667v0h4c0.368 0 0.667-0.299 0.667-0.667s-0.299-0.667-0.667-0.667v0zM20.667 5.908c-0.368 0-0.667 0.299-0.667 0.667v0 2.667c0 0.368 0.299 0.667 0.667 0.667s0.667-0.299 0.667-0.667v0-2.667c0-0.368-0.299-0.667-0.667-0.667zM7.333 5.908h-4c-0.368 0-0.667 0.299-0.667 0.667s0.299 0.667 0.667 0.667v0h4c0.368 0 0.667-0.299 0.667-0.667s-0.299-0.667-0.667-0.667v0z"></path>
</symbol>
<symbol id="icon-edit" viewBox="0 0 32 32">
<path d="M25.867 9.787l-3.653-3.653c-0.987-0.927-2.512-0.967-3.547-0.093l-12 12c-0.431 0.435-0.699 1.004-0.76 1.613l-0.573 5.56c-0.036 0.395 0.105 0.786 0.387 1.067 0.252 0.25 0.592 0.389 0.947 0.387h0.12l5.56-0.507c0.609-0.061 1.179-0.329 1.613-0.76l12-12c0.97-1.024 0.928-2.64-0.093-3.613zM12.107 23.493l-4 0.373 0.36-4 7.533-7.44 3.6 3.6-7.493 7.467zM21.333 14.24l-3.573-3.573 2.6-2.667 3.64 3.64-2.667 2.6z"></path>
</symbol>
<symbol id="icon-edit-solid" viewBox="0 0 32 32">
<path d="M14.768 9.937l7.326 7.328-8.134 8.135c-0.373 0.369-0.844 0.619-1.355 0.721l-0.258 0.039-5.56 0.507h-0.12c-0.354 0.002-0.695-0.137-0.947-0.387-0.281-0.28-0.423-0.671-0.387-1.067v0l0.573-5.56c0.061-0.609 0.329-1.179 0.76-1.613v0l8.101-8.103zM18.667 6.040c1.034-0.874 2.56-0.834 3.547 0.093v0l3.653 3.653c1.021 0.973 1.063 2.589 0.093 3.613v0l-1.232 1.231-7.326-7.328z"></path>
</symbol>
<symbol id="icon-elan" viewBox="0 0 32 32">
<path d="M23.467 3.2c1.767 0 3.2 1.433 3.2 3.2v19.2c0 1.767-1.433 3.2-3.2 3.2h-14.933c-1.767 0-3.2-1.433-3.2-3.2v-19.2c0-1.767 1.433-3.2 3.2-3.2h14.933zM16 23.467h-6.4c-0.589 0-1.067 0.478-1.067 1.067s0.478 1.067 1.067 1.067v0h6.4c0.589 0 1.067-0.478 1.067-1.067s-0.478-1.067-1.067-1.067v0zM20.267 20.267h-10.667c-0.589 0-1.067 0.478-1.067 1.067s0.478 1.067 1.067 1.067v0h10.667c0.589 0 1.067-0.478 1.067-1.067s-0.478-1.067-1.067-1.067v0zM21.333 6.4h-10.667c-1.178 0-2.133 0.955-2.133 2.133v0 6.4c0 1.178 0.955 2.133 2.133 2.133v0h10.667c1.178 0 2.133-0.955 2.133-2.133v0-6.4c0-1.178-0.955-2.133-2.133-2.133v0z"></path>
</symbol>
<symbol id="icon-exterior" viewBox="0 0 32 32">
<path d="M11.2 17.6h9.6v14.4h-9.6v-14.4z"></path>
<path d="M29.472 13.088l-12.336-12.608c-0.3-0.303-0.709-0.473-1.136-0.473s-0.836 0.17-1.136 0.473l-12.336 12.624c-0.603 0.608-0.937 1.432-0.928 2.288v13.408c-0.002 1.701 1.326 3.106 3.024 3.2h4.976v-14.4c0-0.884 0.716-1.6 1.6-1.6h9.6c0.884 0 1.6 0.716 1.6 1.6v14.4h4.976c1.698-0.094 3.027-1.499 3.024-3.2v-13.408c0.001-0.859-0.331-1.685-0.928-2.304z"></path>
</symbol>
<symbol id="icon-eye" viewBox="0 0 32 32">
<path d="M15.64 6.667c7.973-0.24 12.667 7.187 13.52 8.667 0.238 0.413 0.238 0.921 0 1.333-1.147 2-5.427 8.48-12.8 8.667v0h-0.333c-7.853 0-12.347-7.213-13.187-8.667-0.238-0.413-0.238-0.921 0-1.333 1.16-2 5.427-8.48 12.8-8.667zM16 11.333c-2.577 0-4.667 2.089-4.667 4.667s2.089 4.667 4.667 4.667c2.577 0 4.667-2.089 4.667-4.667s-2.089-4.667-4.667-4.667zM16 14c1.105 0 2 0.895 2 2s-0.895 2-2 2c-1.105 0-2-0.895-2-2s0.895-2 2-2z"></path>
</symbol>
<symbol id="icon-eye-close" viewBox="0 0 32 32">
<path d="M4.987 4.040c0.462-0.124 0.955 0.008 1.293 0.346v0l9.612 9.617 0.108-0.004c1.036 0 1.887 0.787 1.99 1.796l0.010 0.204c0 0.037-0.001 0.074-0.003 0.111l7.883 7.889 1.733 1.72c0.252 0.25 0.394 0.591 0.394 0.947s-0.142 0.696-0.394 0.947c-0.25 0.252-0.591 0.394-0.947 0.394s-0.696-0.142-0.947-0.394v0l-3.6-3.613-6.011-6.007-0.109 0.007c-1.036 0-1.887-0.787-1.99-1.796l-0.010-0.204c0-0.036 0.001-0.072 0.003-0.108l-4.296-4.292-2.333-2.267-2.987-3.053c-0.338-0.338-0.47-0.831-0.346-1.293s0.485-0.823 0.947-0.947zM6.667 10.493l2.080 2.027 2.667 2.667c-0.047 0.269-0.074 0.541-0.080 0.813-0 1.249 0.501 2.447 1.39 3.324s2.094 1.361 3.343 1.343c0.273-0.006 0.545-0.033 0.813-0.080v0l1.787 1.787 1.72 1.787 0.28 0.28c-1.372 0.547-2.83 0.85-4.307 0.893v0h-0.333c-7.853 0-12.347-7.213-13.187-8.667-0.238-0.413-0.238-0.921 0-1.333 1.033-1.791 2.322-3.422 3.827-4.84v0zM15.64 6.667c7.973-0.24 12.667 7.187 13.52 8.667 0.238 0.413 0.238 0.921 0 1.333-1.049 1.795-2.356 3.426-3.88 4.84v0l-4.693-4.693c0.047-0.269 0.074-0.541 0.080-0.813 0-2.577-2.089-4.667-4.667-4.667-0.273 0.006-0.545 0.033-0.813 0.080v0l-3.853-3.853c1.372-0.547 2.83-0.85 4.307-0.893z"></path>
</symbol>
<symbol id="icon-facebook" viewBox="0 0 32 32">
<path d="M16 2.667c-7.364 0-13.333 6.006-13.333 13.415 0 6.695 4.876 12.245 11.251 13.252v-9.375h-3.387v-3.877h3.387v-2.955c0-3.362 1.989-5.218 5.036-5.218 1.459 0 2.984 0.262 2.984 0.262v3.3h-1.68c-1.657 0-2.173 1.034-2.173 2.095v2.517h3.697l-0.591 3.877h-3.107v9.375c6.373-1.006 11.249-6.558 11.249-13.252 0-7.409-5.969-13.415-13.333-13.415z"></path>
</symbol>
<symbol id="icon-flag" viewBox="0 0 32 32">
<path d="M25.693 6.24c-0.617-0.445-1.41-0.569-2.133-0.333-0.941 0.265-1.916 0.39-2.893 0.373-1.445-0.078-2.861-0.431-4.173-1.040-1.621-0.75-3.375-1.171-5.16-1.24-3.853 0-5.333 1.333-5.6 1.52-0.258 0.253-0.402 0.599-0.4 0.96v20.187c0 0.736 0.597 1.333 1.333 1.333s1.333-0.597 1.333-1.333v-5.733c1.062-0.407 2.197-0.593 3.333-0.547 1.445 0.078 2.861 0.431 4.173 1.040 1.621 0.75 3.375 1.171 5.16 1.24 1.607 0.061 3.206-0.259 4.667-0.933 0.803-0.377 1.321-1.18 1.333-2.067v-11.52c-0.001-0.755-0.363-1.463-0.973-1.907v0z"></path>
</symbol>
<symbol id="icon-fullscreen" viewBox="0 0 32 32">
<path d="M4 18.4l0.187 0.011c0.796 0.092 1.413 0.769 1.413 1.589v0 4.8h4.8l0.187 0.011c0.796 0.092 1.413 0.769 1.413 1.589 0 0.884-0.716 1.6-1.6 1.6v0h-6.4l-0.187-0.011c-0.796-0.092-1.413-0.769-1.413-1.589v0-6.4l0.011-0.187c0.092-0.796 0.769-1.413 1.589-1.413v0zM28 18.4c0.884 0 1.6 0.716 1.6 1.6v0 6.4l-0.011 0.187c-0.092 0.796-0.769 1.413-1.589 1.413v0h-6.4l-0.187-0.011c-0.796-0.092-1.413-0.769-1.413-1.589v0l0.011-0.187c0.092-0.796 0.769-1.413 1.589-1.413v0l4.8 0.002v-4.802l0.011-0.187c0.092-0.796 0.769-1.413 1.589-1.413zM10.4 4c0.884 0 1.6 0.716 1.6 1.6 0 0.821-0.618 1.497-1.413 1.589l-0.187 0.011h-4.8v4.8c0 0.821-0.618 1.497-1.413 1.589l-0.187 0.011c-0.821 0-1.497-0.618-1.589-1.413l-0.011-0.187v-6.4c0-0.821 0.618-1.497 1.413-1.589l0.187-0.011h6.4zM28 4c0.821 0 1.497 0.618 1.589 1.413l0.011 0.187v6.4c0 0.884-0.716 1.6-1.6 1.6-0.821 0-1.497-0.618-1.589-1.413l-0.011-0.187v-4.802l-4.8 0.002c-0.821 0-1.497-0.618-1.589-1.413l-0.011-0.187c0-0.821 0.618-1.497 1.413-1.589l0.187-0.011h6.4z"></path>
</symbol>
<symbol id="icon-heart" viewBox="0 0 32 32">
<path d="M21.397 4l-0.328 0.008c-1.952 0.094-3.65 0.992-5.071 2.548-1.498-1.645-3.306-2.554-5.398-2.556-4.323 0-7.934 3.43-7.934 8.559 0 3.399 2.255 7.036 5.871 10.498l0.587 0.549c2.669 2.438 5.65 4.394 6.875 4.394 1.316 0 4.657-2.257 7.462-4.943 3.616-3.462 5.871-7.099 5.871-10.498 0-5.016-3.449-8.405-7.646-8.553l-0.29-0.005z"></path>
</symbol>
<symbol id="icon-heart-outline" viewBox="0 0 32 32">
<path d="M21.397 4l-0.328 0.008c-1.952 0.094-3.65 0.992-5.071 2.548-1.498-1.645-3.306-2.554-5.398-2.556-4.323 0-7.934 3.43-7.934 8.559 0 3.399 2.255 7.036 5.871 10.498l0.587 0.549c2.669 2.438 5.65 4.394 6.875 4.394 1.316 0 4.657-2.257 7.462-4.943 3.616-3.462 5.871-7.099 5.871-10.498 0-5.016-3.449-8.405-7.646-8.553l-0.29-0.005zM21.403 6.667c2.88 0 5.264 2.265 5.264 5.892 0 2.486-1.91 5.567-5.049 8.572-2.288 2.191-5.266 4.203-5.618 4.203s-3.33-2.012-5.618-4.203c-3.138-3.005-5.049-6.086-5.049-8.572 0-3.624 2.388-5.892 5.267-5.892 1.641 0.001 3.059 0.941 4.287 2.801 0.527 0.798 1.698 0.798 2.225 0 1.226-1.857 2.647-2.797 4.29-2.801z"></path>
</symbol>
<symbol id="icon-heyet-evi" viewBox="0 0 32 32">
<path d="M26.667 26.667c0 0.736-0.597 1.333-1.333 1.333h-18.667c-0.736 0-1.333-0.597-1.333-1.333v-12h-4l13.769-12.517c0.509-0.463 1.286-0.463 1.795 0l13.769 12.517h-4v12zM10.667 20v2.667h10.667v-2.667h-10.667z"></path>
</symbol>
<symbol id="icon-instagram" viewBox="0 0 32 32">
<path d="M16 2.667c3.623 0 4.075 0.013 5.496 0.080 1.42 0.067 2.387 0.289 3.237 0.62 0.88 0.339 1.621 0.797 2.363 1.537 0.678 0.667 1.203 1.473 1.537 2.363 0.329 0.849 0.553 1.817 0.62 3.237 0.063 1.421 0.080 1.873 0.080 5.496s-0.013 4.075-0.080 5.496c-0.067 1.42-0.291 2.387-0.62 3.237-0.334 0.89-0.858 1.697-1.537 2.363-0.667 0.678-1.473 1.202-2.363 1.537-0.849 0.329-1.817 0.553-3.237 0.62-1.421 0.063-1.873 0.080-5.496 0.080s-4.075-0.013-5.496-0.080c-1.42-0.067-2.387-0.291-3.237-0.62-0.89-0.334-1.697-0.859-2.363-1.537-0.678-0.666-1.203-1.473-1.537-2.363-0.331-0.849-0.553-1.817-0.62-3.237-0.063-1.421-0.080-1.873-0.080-5.496s0.013-4.075 0.080-5.496c0.067-1.421 0.289-2.387 0.62-3.237 0.334-0.89 0.858-1.697 1.537-2.363 0.666-0.678 1.473-1.203 2.363-1.537 0.851-0.331 1.816-0.553 3.237-0.62 1.421-0.063 1.873-0.080 5.496-0.080zM16 9.333c-3.682 0-6.667 2.985-6.667 6.667s2.985 6.667 6.667 6.667c3.682 0 6.667-2.985 6.667-6.667s-2.985-6.667-6.667-6.667v0zM24.667 9c0-0.92-0.746-1.667-1.667-1.667s-1.667 0.746-1.667 1.667c0 0.92 0.746 1.667 1.667 1.667s1.667-0.746 1.667-1.667zM16 12c2.209 0 4 1.791 4 4s-1.791 4-4 4c-2.209 0-4-1.791-4-4s1.791-4 4-4z"></path>
</symbol>
<symbol id="icon-interior" viewBox="0 0 32 32">
<path d="M15.063 20.075v7.5h-7.5v0.938c0 0.518-0.42 0.938-0.938 0.938s-0.938-0.42-0.938-0.938v0-0.938h-2.813c-0.518 0-0.938-0.42-0.938-0.938v0-6.563h13.125zM30.063 20.075v6.563c0 0.517-0.42 0.938-0.938 0.938v0h-2.813v0.938c0 0.518-0.42 0.938-0.938 0.938s-0.938-0.42-0.938-0.938v0-0.938h-7.5v-7.5h13.125zM23.5 21.95h-1.875c-0.517 0-0.938 0.42-0.938 0.938s0.42 0.938 0.938 0.938v0h1.875c0.517 0 0.938-0.42 0.938-0.938s-0.42-0.938-0.938-0.938v0zM15.063 12.575v5.625h-13.125v-5.625h13.125zM30.063 12.575v5.625h-13.125v-5.625h13.125zM10.375 14.45h-1.875c-0.518 0-0.938 0.42-0.938 0.938s0.42 0.938 0.938 0.938v0h1.875c0.518 0 0.938-0.42 0.938-0.938s-0.42-0.938-0.938-0.938v0zM31.063 3.2c0.518 0 0.938 0.42 0.938 0.938s-0.42 0.938-0.938 0.938v0h-1v5.625h-28.125v-5.625h-1c-0.518 0-0.938-0.42-0.938-0.938s0.42-0.938 0.938-0.938v0z"></path>
</symbol>
<symbol id="icon-key" viewBox="0 0 32 32">
<path d="M21.133 12.267c-0.772 0-1.4-0.628-1.4-1.4s0.628-1.4 1.4-1.4c0.772 0 1.4 0.628 1.4 1.4s-0.628 1.4-1.4 1.4zM20.2 4.8c-3.86 0-7 3.14-7 7 0 1.013 0.214 1.988 0.635 2.905l-8.898 8.897c-0.087 0.088-0.136 0.207-0.136 0.33v1.867c0 0.201 0.129 0.379 0.319 0.443l2.8 0.933c0.245 0.081 0.509-0.051 0.59-0.296l0.861-2.578 2.578-0.86c0.14-0.046 0.249-0.156 0.295-0.296l0.873-2.617 4.475-2.237c0.834 0.336 1.711 0.507 2.61 0.507 3.86 0 7-3.14 7-7s-3.14-7-7-7z"></path>
</symbol>
<symbol id="icon-obyekt" viewBox="0 0 32 32">
<path d="M13.333 13.481v-12.148l14.667 8v18.667h-24v-18.667z"></path>
<path d="M13.333 13.481v-12.148l1.067 26.667h-10.4v-18.667z"></path>
</symbol>
<symbol id="icon-linkedin" viewBox="0 0 32 32">
<path d="M9.253 6.667c-0.001 1.473-1.195 2.666-2.668 2.665s-2.666-1.195-2.665-2.668c0.001-1.473 1.195-2.666 2.668-2.665s2.666 1.195 2.665 2.668v0zM9.333 11.307h-5.333v16.693h5.333v-16.693zM17.76 11.307h-5.307v16.693h5.253v-8.76c0-4.88 6.36-5.333 6.36 0v8.76h5.267v-10.573c0-8.227-9.413-7.92-11.627-3.88l0.053-2.24z"></path>
</symbol>
<symbol id="icon-logout" viewBox="0 0 32 32">
<path d="M9.333 8c0.736 0 1.333-0.597 1.333-1.333s-0.597-1.333-1.333-1.333h-2.667c-0.736 0-1.333 0.597-1.333 1.333v18.667c0 0.736 0.597 1.333 1.333 1.333h2.667c0.736 0 1.333-0.597 1.333-1.333s-0.597-1.333-1.333-1.333h-1.333v-16h1.333z"></path>
<path d="M27.76 15.227l-3.76-5.333c-0.424-0.598-1.253-0.741-1.853-0.32-0.291 0.204-0.489 0.516-0.549 0.867s0.022 0.711 0.229 1l2.293 3.227h-10.787c-0.736 0-1.333 0.597-1.333 1.333s0.597 1.333 1.333 1.333h10.667l-2.4 3.2c-0.212 0.283-0.303 0.639-0.253 0.989s0.237 0.666 0.52 0.878c0.231 0.173 0.512 0.267 0.8 0.267 0.42 0 0.815-0.198 1.067-0.533l4-5.333c0.35-0.463 0.361-1.099 0.027-1.573v0z"></path>
</symbol>
<symbol id="icon-mail" viewBox="0 0 32 32">
<path d="M25.333 5.333h-18.667c-2.209 0-4 1.791-4 4v13.333c0 2.209 1.791 4 4 4h18.667c2.209 0 4-1.791 4-4v-13.333c0-2.209-1.791-4-4-4zM25.333 8l-8.667 5.96c-0.413 0.238-0.921 0.238-1.333 0l-8.667-5.96h18.667z"></path>
</symbol>
<symbol id="icon-map" viewBox="0 0 32 32">
<path d="M25.333 8.667h-4v-0.667c0-1.841-1.492-3.333-3.333-3.333h-4c-1.841 0-3.333 1.492-3.333 3.333v0.667h-4c-2.209 0-4 1.791-4 4v10.667c0 2.209 1.791 4 4 4h18.667c2.209 0 4-1.791 4-4v-10.667c0-2.209-1.791-4-4-4zM13.333 8c0-0.368 0.298-0.667 0.667-0.667h4c0.368 0 0.667 0.298 0.667 0.667v0.667h-5.333v-0.667zM26.667 23.333c0 0.736-0.597 1.333-1.333 1.333h-18.667c-0.736 0-1.333-0.597-1.333-1.333v-10.667c0-0.736 0.597-1.333 1.333-1.333h18.667c0.736 0 1.333 0.597 1.333 1.333v10.667z"></path>
<path d="M16 13.333c-2.577 0-4.667 2.089-4.667 4.667s2.089 4.667 4.667 4.667c2.577 0 4.667-2.089 4.667-4.667s-2.089-4.667-4.667-4.667v0zM16 20c-1.105 0-2-0.895-2-2s0.895-2 2-2c1.105 0 2 0.895 2 2s-0.895 2-2 2v0z"></path>
</symbol>
<symbol id="icon-message-sent" viewBox="0 0 32 32">
<path fill="#f3996b" style="fill: var(--color1, #f3996b)" d="M22.204 7.837h-18.286c-2.164 0-3.918 1.754-3.918 3.918v13.061c0 2.164 1.754 3.918 3.918 3.918h18.286c2.164 0 3.918-1.754 3.918-3.918v-13.061c0-2.164-1.754-3.918-3.918-3.918zM22.204 10.449l-8.49 5.838c-0.404 0.233-0.902 0.233-1.306 0l-8.49-5.838h18.286z"></path>
<path fill="#5f7beb" style="fill: var(--color2, #5f7beb)" d="M26.122 3.701c-3.006 0-5.442 2.437-5.442 5.442s2.437 5.442 5.442 5.442c3.006 0 5.442-2.437 5.442-5.442 0-1.443-0.573-2.828-1.594-3.848s-2.405-1.594-3.848-1.594z"></path>
<path fill="#fff" style="fill: var(--color3, #fff)" d="M28.463 7.842l-2.487 3.265c-0.103 0.133-0.262 0.212-0.43 0.212s-0.326-0.075-0.43-0.207l-1.328-1.693c-0.12-0.154-0.148-0.359-0.075-0.54s0.237-0.308 0.43-0.335c0.193-0.027 0.385 0.051 0.505 0.205l0.887 1.132 2.057-2.721c0.119-0.156 0.311-0.236 0.505-0.211s0.36 0.152 0.435 0.332c0.075 0.181 0.049 0.388-0.070 0.543v0.016z"></path>
</symbol>
<symbol id="icon-metro" viewBox="0 0 32 32">
<path d="M14.529 21.456c-0.923-0.079-1.548-0.582-1.874-1.234l-0.085-0.19-2.779-4.696-1.972 4.78c-0.476 1.153-1.747 1.737-2.916 1.381l-0.218-0.078c-1.153-0.476-1.737-1.747-1.381-2.916l0.078-0.218 2.642-6.4c0.342-0.829 1.115-1.392 1.996-1.474l0.222-0.010h2.836c0.771 0 1.49 0.37 1.939 0.986l0.126 0.192 2.856 4.822 2.856-4.822c0.393-0.664 1.077-1.094 1.836-1.167l0.23-0.011h2.836c0.897 0 1.712 0.499 2.124 1.283l0.094 0.202 2.642 6.4c0.506 1.225-0.077 2.628-1.302 3.134-1.153 0.476-2.464-0.012-3.036-1.093l-0.098-0.209-1.974-4.78-2.779 4.696c-0.298 0.747-0.95 1.337-1.957 1.424l-0.259 0.011h-2.424l-0.259-0.011z"></path>
</symbol>
<symbol id="icon-office" viewBox="0 0 32 32">
<path d="M9.333 8.533v-4c0-0.736 0.597-1.333 1.333-1.333h10.667c0.736 0 1.333 0.597 1.333 1.333v4h5.333c0.736 0 1.333 0.597 1.333 1.333v18.667c0 0.736-0.597 1.333-1.333 1.333h-24c-0.736 0-1.333-0.597-1.333-1.333v-18.667c0-0.736 0.597-1.333 1.333-1.333h5.333zM5.333 21.867v5.333h21.333v-5.333h-21.333zM14.667 16.533v2.667h2.667v-2.667h-2.667zM12 5.867v2.667h8v-2.667h-8z"></path>
</symbol>
<symbol id="icon-painting" viewBox="0 0 32 32">
<path d="M5.965 13.721c0.26-0.259 0.681-0.259 0.941 0v0l11.313 11.311c0.259 0.259 0.259 0.681 0 0.941v0l-5.77 5.77c-0.13 0.129-0.301 0.194-0.471 0.194s-0.341-0.064-0.471-0.194v0l-3.327-3.327c-0.124-0.125-0.194-0.294-0.194-0.471v0-2.662h-2.662c-0.177 0-0.346-0.071-0.471-0.194v0l-1.996-1.996c-0.124-0.125-0.194-0.294-0.194-0.471v0-1.331h-1.331c-0.177 0-0.346-0.071-0.471-0.194v0l-0.665-0.665c-0.26-0.259-0.26-0.681 0-0.941v0zM27.28 0c2.568 0 4.658 2.088 4.658 4.656s-2.089 4.658-4.658 4.658c-0.7 0-1.661 0.607-2.856 1.802-1.272 1.272-2.857 2.856 0.772 9.178 0.149 0.261 0.106 0.59-0.106 0.802v0l-3.992 3.992c-0.13 0.129-0.301 0.194-0.471 0.194s-0.341-0.064-0.471-0.194v0l-13.307-13.307c-0.26-0.259-0.26-0.681 0-0.941v0l3.992-3.992c0.214-0.213 0.542-0.255 0.802-0.106 2.624 1.506 4.634 2.238 6.144 2.238 1.448 0 2.261-0.693 3.034-1.466 1.196-1.195 1.802-2.156 1.802-2.856 0-2.568 2.089-4.658 4.658-4.658zM15.774 10.842c-0.259-0.259-0.681-0.259-0.941 0s-0.259 0.681 0 0.941v0l5.323 5.323c0.13 0.129 0.301 0.194 0.471 0.194s0.341-0.064 0.471-0.194c0.259-0.261 0.259-0.681-0.001-0.941v0zM27.28 2.662c-1.101 0-1.996 0.896-1.996 1.996s0.896 1.996 1.996 1.996c1.1 0 1.996-0.896 1.996-1.996s-0.896-1.996-1.996-1.996z"></path>
</symbol>
<symbol id="icon-phone" viewBox="0 0 32 32">
<path d="M4.8 9.952c0-2.845 2.302-5.152 5.142-5.152 0.289-0.002 0.577 0.024 0.861 0.078 0.274 0.041 0.544 0.108 0.805 0.202 0.374 0.131 0.65 0.451 0.727 0.84l1.531 6.72c0.084 0.371-0.026 0.759-0.291 1.030-0.145 0.157-0.156 0.168-1.531 0.885 1.101 2.42 3.033 4.364 5.444 5.477 0.727-1.389 0.738-1.4 0.894-1.546 0.271-0.266 0.658-0.375 1.028-0.291l6.707 1.534c0.376 0.087 0.68 0.362 0.805 0.728 0.094 0.266 0.165 0.539 0.212 0.818 0.045 0.281 0.067 0.566 0.067 0.851-0.043 2.832-2.36 5.098-5.186 5.073-9.502-0.012-17.201-7.727-17.214-17.247z"></path>
</symbol>
<symbol id="icon-phone-material" viewBox="0 0 32 32">
<path d="M26.292 20.657l-3.62-0.413c-0.869-0.1-1.724 0.2-2.337 0.812l-2.622 2.622c-4.033-2.052-7.339-5.344-9.391-9.391l2.636-2.636c0.613-0.613 0.912-1.468 0.812-2.337l-0.413-3.591c-0.171-1.439-1.382-2.522-2.836-2.522h-2.465c-1.61 0-2.95 1.34-2.85 2.95 0.755 12.17 10.489 21.89 22.645 22.645 1.61 0.1 2.95-1.24 2.95-2.85v-2.465c0.014-1.439-1.069-2.651-2.508-2.822z"></path>
</symbol>
<symbol id="icon-pin" viewBox="0 0 32 32">
<path d="M16 2.667c-5.85-0-10.608 4.711-10.667 10.56 0 7.307 9.4 15.44 9.8 15.787 0.499 0.427 1.234 0.427 1.733 0 0.467-0.347 9.8-8.48 9.8-15.787-0.058-5.849-4.817-10.56-10.667-10.56zM16 17.333c-2.577 0-4.667-2.089-4.667-4.667s2.089-4.667 4.667-4.667c2.577 0 4.667 2.089 4.667 4.667 0 1.238-0.492 2.425-1.367 3.3s-2.062 1.367-3.3 1.367v0z"></path>
</symbol>
<symbol id="icon-plus" viewBox="0 0 32 32">
<path d="M24 17.6h-6.4v6.4c0 0.884-0.716 1.6-1.6 1.6s-1.6-0.716-1.6-1.6v-6.4h-6.4c-0.884 0-1.6-0.716-1.6-1.6s0.716-1.6 1.6-1.6h6.4v-6.4c0-0.884 0.716-1.6 1.6-1.6s1.6 0.716 1.6 1.6v6.4h6.4c0.884 0 1.6 0.716 1.6 1.6s-0.716 1.6-1.6 1.6z"></path>
</symbol>
<symbol id="icon-plus-circle" viewBox="0 0 32 32">
<path d="M16 2.667c-7.364 0-13.333 5.97-13.333 13.333s5.97 13.333 13.333 13.333c7.364 0 13.333-5.97 13.333-13.333 0-3.536-1.405-6.928-3.905-9.428s-5.892-3.905-9.428-3.905zM20 17.333h-2.667v2.667c0 0.736-0.597 1.333-1.333 1.333s-1.333-0.597-1.333-1.333v-2.667h-2.667c-0.736 0-1.333-0.597-1.333-1.333s0.597-1.333 1.333-1.333h2.667v-2.667c0-0.736 0.597-1.333 1.333-1.333s1.333 0.597 1.333 1.333v2.667h2.667c0.736 0 1.333 0.597 1.333 1.333s-0.597 1.333-1.333 1.333z"></path>
</symbol>
<symbol id="icon-portmanat" viewBox="0 0 32 32">
<path d="M16 3.2c7.068 0 12.8 5.732 12.8 12.8 0 6.997-5.618 12.685-12.588 12.798l-0.212 0.002h-9.216l3.584-3.584h5.632c5.082 0 9.216-4.134 9.216-9.216s-4.134-9.216-9.216-9.216c-5.031 0-9.133 4.052-9.215 9.064l-0.001 0.152v12.8h-3.584v-12.8c0-7.068 5.732-12.8 12.8-12.8zM16 10.368c3.11 0 5.632 2.522 5.632 5.632 0 3.079-2.471 5.581-5.539 5.631l-0.093 0.001h-5.632v-5.632c0-3.11 2.522-5.632 5.632-5.632z"></path>
</symbol>
<symbol id="icon-video" viewBox="0 0 32 32">
<path d="M2375 4713 c-273 -24 -573 -112 -814 -239 -618 -327 -1032 -912
-1137 -1609 -20 -135 -23 -431 -5 -565 89 -670 469 -1250 1043 -1592 481 -286
1070 -372 1618 -237 528 131 992 462 1292 924 456 699 456 1635 1 2335 -406
624 -1097 998 -1828 988 -71 -1 -148 -3 -170 -5z m453 -1699 c372 -218 687
-406 700 -418 32 -31 38 -83 14 -121 -14 -22 -111 -83 -343 -220 -1049 -614
-1051 -615 -1086 -615 -44 0 -79 24 -92 62 -8 21 -11 285 -11 825 0 843 0 845
47 872 56 33 60 31 771 -385z"></path>
</symbol>
<symbol id="icon-refresh" viewBox="0 0 32 32">
<path d="M27.067 17.907c-0.699-0.218-1.443 0.169-1.667 0.867-1.293 3.953-5.002 6.609-9.16 6.56-5.218 0.059-9.5-4.115-9.573-9.333 0.073-5.218 4.355-9.393 9.573-9.333 2.263-0.005 4.457 0.782 6.2 2.227l-2.893-0.48c-0.35-0.058-0.709 0.027-0.997 0.235s-0.481 0.522-0.537 0.872c-0.058 0.35 0.027 0.709 0.235 0.997s0.522 0.481 0.872 0.537l5.653 0.933h0.227c0.155-0 0.308-0.027 0.453-0.080 0.049-0.019 0.094-0.046 0.133-0.080 0.096-0.036 0.185-0.085 0.267-0.147l0.12-0.147c0-0.067 0.12-0.12 0.173-0.2s0-0.133 0.067-0.187c0.037-0.078 0.068-0.158 0.093-0.24l1-5.333c0.090-0.476-0.080-0.965-0.447-1.281s-0.876-0.413-1.333-0.253c-0.458 0.16-0.796 0.552-0.886 1.028l-0.36 1.933c-2.232-1.934-5.086-2.999-8.040-3-6.691-0.059-12.167 5.309-12.24 12 0.073 6.691 5.549 12.059 12.24 12 5.346 0.082 10.119-3.338 11.76-8.427 0.102-0.345 0.061-0.716-0.115-1.030s-0.471-0.543-0.818-0.636z"></path>
</symbol>
<symbol id="icon-search" viewBox="0 0 32 32">
<path d="M27.613 25.72l-4.533-4.52c1.463-1.863 2.256-4.164 2.253-6.533 0-5.891-4.776-10.667-10.667-10.667s-10.667 4.776-10.667 10.667c0 5.891 4.776 10.667 10.667 10.667 2.369 0.003 4.67-0.791 6.533-2.253l4.52 4.533c0.25 0.252 0.591 0.394 0.947 0.394s0.696-0.142 0.947-0.394c0.252-0.25 0.394-0.591 0.394-0.947s-0.142-0.696-0.394-0.947zM6.667 14.667c0-4.418 3.582-8 8-8s8 3.582 8 8c0 4.418-3.582 8-8 8s-8-3.582-8-8z"></path>
</symbol>
    <symbol id="icon-home" viewBox="0 0 32 32">
        <path fill="#5f7beb" style="fill: var(--color1, #5f7beb)" d="M1.668 22.841c0.259 0 0.469-0.21 0.469-0.469v-13.063l12.664-8.28 12.663 8.28v2.458c0 0.259 0.21 0.469 0.469 0.469s0.469-0.21 0.469-0.469v-2.712c0-0.158-0.080-0.306-0.212-0.392l-13.132-8.586c-0.156-0.102-0.357-0.102-0.513 0l-13.133 8.586c-0.132 0.087-0.212 0.234-0.212 0.392v13.317c0 0.259 0.21 0.469 0.469 0.469z"></path>
        <path fill="#5f7beb" style="fill: var(--color1, #5f7beb)" d="M30.663 29.593l-1.276-1.276 0.204-0.204c0.183-0.183 0.183-0.48 0-0.663l-1.348-1.348c1.188-2.244 1.24-4.937 0.157-7.221v-4.927c0-0.259-0.21-0.469-0.469-0.469s-0.469 0.21-0.469 0.469v3.413c-0.197-0.25-0.41-0.491-0.64-0.722-3.137-3.137-8.241-3.137-11.377 0-2.86 2.86-3.112 7.354-0.758 10.502h-4.218v-9.633c0-0.259-0.21-0.469-0.469-0.469h-6.314c-0.259 0-0.469 0.21-0.469 0.469v9.633h-1.083v-2.589c0-0.259-0.21-0.469-0.469-0.469s-0.469 0.21-0.469 0.469v3.058c0 0.259 0.21 0.469 0.469 0.469h13.842c1.56 1.526 3.592 2.29 5.625 2.29 1.297 0 2.593-0.311 3.767-0.932l1.348 1.348c0.091 0.091 0.212 0.137 0.331 0.137s0.24-0.046 0.331-0.137l0.204-0.204 1.276 1.276c0.092 0.091 0.212 0.137 0.331 0.137s0.24-0.046 0.331-0.137c0.183-0.183 0.183-0.48 0-0.663l-1.276-1.276 0.944-0.944 1.276 1.276c0.092 0.091 0.212 0.137 0.331 0.137s0.24-0.046 0.331-0.137c0.183-0.183 0.183-0.48-0-0.663zM4.157 23.035h1.173c0.259 0 0.469-0.21 0.469-0.469s-0.21-0.469-0.469-0.469h-1.173v-4.113h5.376v9.164h-5.376zM16.11 27.36c-2.771-2.771-2.771-7.28 0-10.051 1.386-1.386 3.206-2.078 5.026-2.078s3.64 0.693 5.026 2.078c2.771 2.771 2.771 7.28 0 10.051s-7.28 2.771-10.051 0zM25.727 28.942c0.386-0.268 0.753-0.575 1.097-0.918s0.65-0.711 0.918-1.097l0.855 0.855-1.811 1.811c-0 0-0 0-0.001 0.001s-0 0-0.001 0.001l-0.204 0.204z"></path>
        <path fill="#5f7beb" style="fill: var(--color1, #5f7beb)" d="M25.395 18.075c-1.121-1.121-2.61-1.747-4.195-1.764-1.584-0.019-3.082 0.575-4.225 1.666-0.187 0.179-0.194 0.476-0.015 0.663s0.475 0.194 0.663 0.015c1.982-1.893 5.171-1.855 7.109 0.083 0.961 0.961 1.49 2.238 1.49 3.597s-0.529 2.636-1.49 3.597c-1.983 1.984-5.211 1.984-7.194 0-1.494-1.494-1.911-3.709-1.062-5.643 0.104-0.237-0.004-0.514-0.241-0.618s-0.514 0.004-0.618 0.241c-0.482 1.098-0.625 2.306-0.412 3.491 0.217 1.214 0.795 2.317 1.669 3.192 1.138 1.138 2.651 1.765 4.26 1.765s3.122-0.627 4.26-1.765c1.138-1.138 1.765-2.651 1.765-4.26s-0.627-3.122-1.765-4.26z"></path>
        <path fill="#5f7beb" style="fill: var(--color1, #5f7beb)" d="M11.175 9.308c0 1.999 1.626 3.626 3.626 3.626s3.626-1.626 3.626-3.626-1.626-3.626-3.626-3.626-3.626 1.626-3.626 3.626zM14.332 6.662v2.178h-2.178c0.196-1.107 1.070-1.982 2.178-2.178zM12.154 9.776h2.178v2.178c-1.107-0.196-1.982-1.070-2.178-2.178zM15.269 11.954v-2.178h2.178c-0.196 1.107-1.070 1.982-2.178 2.178zM17.447 8.839h-2.178v-2.178c1.107 0.196 1.982 1.071 2.178 2.178z"></path>
    </symbol>
<symbol id="icon-statistic" viewBox="0 0 32 32">
<path d="M16 5.333c-0.736 0-1.333 0.597-1.333 1.333v20c0 0.736 0.597 1.333 1.333 1.333s1.333-0.597 1.333-1.333v-20c0-0.736-0.597-1.333-1.333-1.333z"></path>
<path d="M25.333 16c-0.736 0-1.333 0.597-1.333 1.333v9.333c0 0.736 0.597 1.333 1.333 1.333s1.333-0.597 1.333-1.333v-9.333c0-0.736-0.597-1.333-1.333-1.333z"></path>
<path d="M6.667 10.667c-0.736 0-1.333 0.597-1.333 1.333v14.667c0 0.736 0.597 1.333 1.333 1.333s1.333-0.597 1.333-1.333v-14.667c0-0.736-0.597-1.333-1.333-1.333z"></path>
</symbol>
<symbol id="icon-structure" viewBox="0 0 32 32">
<path d="M31.745 30.801l-4.188-4.186-1.802 1.802c-0.13 0.13-0.301 0.194-0.471 0.194s-0.341-0.065-0.471-0.194c-0.259-0.259-0.259-0.681 0-0.941l1.802-1.802-1.719-1.721-1.802 1.802c-0.13 0.13-0.301 0.194-0.471 0.194s-0.341-0.065-0.471-0.194c-0.259-0.259-0.259-0.681 0-0.941l1.802-1.802-1.719-1.721-1.802 1.802c-0.13 0.13-0.301 0.194-0.471 0.194s-0.341-0.065-0.471-0.194c-0.259-0.259-0.259-0.681 0-0.941l1.802-1.802-1.719-1.721-1.802 1.802c-0.13 0.13-0.301 0.194-0.471 0.194s-0.341-0.065-0.471-0.194c-0.259-0.259-0.259-0.681 0-0.941l1.802-1.802-1.719-1.721-1.802 1.802c-0.13 0.13-0.301 0.194-0.471 0.194s-0.341-0.065-0.471-0.194c-0.259-0.259-0.259-0.681 0-0.941l1.802-1.802-1.719-1.721-1.802 1.802c-0.13 0.13-0.301 0.194-0.471 0.194s-0.341-0.065-0.471-0.194c-0.259-0.259-0.259-0.681 0-0.941l1.802-1.802-1.719-1.721-1.802 1.802c-0.13 0.13-0.301 0.194-0.471 0.194s-0.341-0.065-0.471-0.194c-0.259-0.259-0.259-0.681 0-0.941l1.802-1.802-1.719-1.721-1.802 1.802c-0.13 0.13-0.301 0.194-0.471 0.194s-0.341-0.065-0.471-0.194c-0.26-0.259-0.26-0.681 0-0.941l1.802-1.802-1.719-1.721-1.802 1.802c-0.13 0.13-0.301 0.194-0.471 0.194s-0.341-0.065-0.471-0.194c-0.26-0.26-0.26-0.681 0-0.941l1.802-1.802-4.186-4.186c-0.19-0.19-0.474-0.249-0.725-0.144-0.249 0.102-0.411 0.346-0.411 0.615v30.607c0 0.367 0.298 0.665 0.665 0.665h30.607c0.269 0 0.512-0.162 0.615-0.411 0.105-0.25 0.048-0.535-0.142-0.727zM15.92 24.873c-0.104 0.25-0.345 0.411-0.615 0.411h-7.984c-0.367 0-0.665-0.298-0.665-0.665v-7.984c0-0.27 0.161-0.511 0.41-0.615 0.083-0.033 0.168-0.051 0.255-0.051 0.177 0 0.345 0.069 0.471 0.194l7.984 7.984c0.19 0.192 0.248 0.476 0.144 0.725z"></path>
</symbol>
<symbol id="icon-success" viewBox="0 0 32 32">
<path d="M22.107 12.694l-6.494 8.362c-0.268 0.342-0.683 0.543-1.123 0.544-0.437 0.002-0.851-0.193-1.123-0.53l-3.467-4.334c-0.312-0.393-0.387-0.92-0.196-1.382s0.619-0.789 1.123-0.857c0.503-0.069 1.006 0.132 1.318 0.525l2.316 2.899 5.372-6.969c0.31-0.398 0.813-0.604 1.319-0.54s0.94 0.388 1.137 0.85c0.197 0.462 0.127 0.992-0.182 1.391v0.042z"></path>
</symbol>
<symbol id="icon-success-circle" viewBox="0 0 32 32">
<path d="M15.991 0c8.837-0.006 16.019 7.181 16.009 15.995-0.003 8.824-7.179 15.998-16 16.005-8.825-0.006-15.994-7.178-16-16.005 0.009-8.818 7.176-15.986 15.991-15.995zM21.153 11.211c-0.507-0.064-1.009 0.142-1.319 0.54v0l-5.372 6.969-2.316-2.899c-0.312-0.393-0.815-0.593-1.318-0.525s-0.931 0.395-1.123 0.857c-0.191 0.462-0.117 0.989 0.196 1.382v0l3.467 4.334c0.271 0.337 0.685 0.532 1.123 0.53 0.44-0.001 0.854-0.202 1.123-0.544v0l6.494-8.362v-0.042c0.31-0.398 0.379-0.928 0.182-1.391s-0.63-0.786-1.137-0.85z"></path>
</symbol>
<symbol id="icon-telegram" viewBox="0 0 32 32">
<path d="M16 29.333c-7.364 0-13.333-5.969-13.333-13.333s5.969-13.333 13.333-13.333c7.364 0 13.333 5.969 13.333 13.333s-5.969 13.333-13.333 13.333zM11.853 17.56l0.017-0.009 1.16 3.827c0.149 0.415 0.355 0.489 0.604 0.455 0.251-0.033 0.383-0.168 0.547-0.325l1.584-1.531 3.4 2.517c0.621 0.343 1.068 0.165 1.223-0.576l2.209-10.429c0.244-0.971-0.183-1.36-0.936-1.051l-12.977 5.013c-0.885 0.355-0.88 0.851-0.16 1.071l3.329 1.039z"></path>
</symbol>
<symbol id="icon-temir" viewBox="0 0 32 32">
<path d="M13.697 12.018l4.29 4.292-12.014 13.215c-0.649 0.713-1.576 1.123-2.54 1.123-1.894 0-3.433-1.54-3.433-3.433 0-0.995 0.358-1.858 1.006-2.506v0l12.691-12.691zM15.969 0.042c3.604 0 5.392 1.788 6.459 2.856v0l5.323 5.323c0.124 0.125 0.194 0.294 0.194 0.471v0 0.665h0.665c0.177 0 0.346 0.069 0.471 0.194v0l2.662 2.662c0.248 0.249 0.261 0.645 0.029 0.91v0l-4.658 5.323c-0.12 0.138-0.293 0.221-0.478 0.226v0h-0.023c-0.177 0-0.346-0.071-0.471-0.194v0l-3.327-3.327c-0.124-0.125-0.194-0.294-0.194-0.471v0-0.912c-0.78-0.069-2.451 0.87-3.628 1.666v0l-4.348-4.348c0.515-0.552 1.321-1.637 1.321-3.061 0-1.714-0.621-3.992-5.988-3.992-0.269 0-0.512-0.162-0.615-0.411-0.104-0.249-0.047-0.535 0.144-0.725 1.207-1.204 2.858-2.856 6.459-2.856z"></path>
</symbol>
<symbol id="icon-torpag" viewBox="0 0 32 32">
<path d="M21.333 28l-6.349-11.64 5.016-8.36 10.667 20z"></path>
<path d="M10.667 13.333l8 14.667h-16z"></path>
<path d="M7.333 10.667c-1.841 0-3.333-1.492-3.333-3.333s1.492-3.333 3.333-3.333c1.841 0 3.333 1.492 3.333 3.333s-1.492 3.333-3.333 3.333z"></path>
</symbol>
<symbol id="icon-trash" viewBox="0 0 32 32">
<path d="M28 8h-6.667v-2.227c-0.065-1.777-1.556-3.167-3.333-3.107h-4c-1.777-0.060-3.268 1.329-3.333 3.107v2.227h-6.667c-0.736 0-1.333 0.597-1.333 1.333s0.597 1.333 1.333 1.333h1.333v14.667c0 2.209 1.791 4 4 4h13.333c2.209 0 4-1.791 4-4v-14.667h1.333c0.736 0 1.333-0.597 1.333-1.333s-0.597-1.333-1.333-1.333zM13.333 21.333c0 0.736-0.597 1.333-1.333 1.333s-1.333-0.597-1.333-1.333v-5.333c0-0.736 0.597-1.333 1.333-1.333s1.333 0.597 1.333 1.333v5.333zM13.333 5.773c0-0.213 0.28-0.44 0.667-0.44h4c0.387 0 0.667 0.227 0.667 0.44v2.227h-5.333v-2.227zM21.333 21.333c0 0.736-0.597 1.333-1.333 1.333s-1.333-0.597-1.333-1.333v-5.333c0-0.736 0.597-1.333 1.333-1.333s1.333 0.597 1.333 1.333v5.333z"></path>
</symbol>
<symbol id="icon-twitter" viewBox="0 0 32 32">
<path d="M29.332 7.866c-0.999 0.435-2.058 0.72-3.142 0.847 1.143-0.673 1.999-1.731 2.407-2.979-1.073 0.628-2.249 1.068-3.475 1.306-1.693-1.782-4.393-2.222-6.579-1.070s-3.312 3.605-2.744 5.98c-4.399-0.217-8.498-2.262-11.277-5.625-0.486 0.822-0.742 1.756-0.74 2.707 0 1.866 0.965 3.515 2.433 4.481-0.869-0.027-1.718-0.258-2.478-0.673v0.067c0.001 2.563 1.836 4.77 4.389 5.279-0.806 0.215-1.652 0.247-2.473 0.093 0.716 2.194 2.77 3.697 5.111 3.739-2.292 1.771-5.206 2.573-8.099 2.229 2.501 1.582 5.412 2.423 8.386 2.42 10.064 0 15.568-8.203 15.568-15.318 0-0.232-0.007-0.466-0.017-0.695 1.071-0.762 1.996-1.706 2.73-2.787l-0.001-0.001z"></path>
</symbol>
<symbol id="icon-user" viewBox="0 0 32 32">
<path d="M16 17.2c4.639 0 8.4 3.761 8.4 8.4 0 0.663-0.537 1.2-1.2 1.2v0h-14.4c-0.663 0-1.2-0.537-1.2-1.2 0-4.639 3.761-8.4 8.4-8.4zM16 5.2c2.651 0 4.8 2.149 4.8 4.8s-2.149 4.8-4.8 4.8c-2.651 0-4.8-2.149-4.8-4.8s2.149-4.8 4.8-4.8z"></path>
</symbol>
<symbol id="icon-villa" viewBox="0 0 32 32">
<path d="M26.667 26.667c0 0.736-0.597 1.333-1.333 1.333h-18.667c-0.736 0-1.333-0.597-1.333-1.333v-12h-4l13.769-12.517c0.509-0.463 1.286-0.463 1.795 0l13.769 12.517h-4v12zM16 22.667l4.479-4.479c0.758-0.758 1.054-1.863 0.776-2.898s-1.086-1.844-2.121-2.121c-1.035-0.277-2.14 0.019-2.898 0.776l-0.236 0.236-0.236-0.236c-0.758-0.758-1.863-1.054-2.898-0.776s-1.844 1.086-2.121 2.121c-0.277 1.035 0.019 2.14 0.776 2.898l4.479 4.479z"></path>
</symbol>
<symbol id="icon-vip" viewBox="0 0 32 32">
<path d="M6.044 18.844l-1.818-10.001c-0.141-0.773 0.372-1.513 1.145-1.654 0.519-0.094 1.047 0.106 1.373 0.521l4.279 5.445 3.706-7.411c0.351-0.703 1.206-0.987 1.908-0.636 0.275 0.138 0.498 0.361 0.636 0.636l3.706 7.411 4.279-5.445c0.485-0.618 1.379-0.725 1.997-0.24 0.415 0.326 0.615 0.854 0.521 1.373l-1.818 10.001h-19.911zM25.956 23.111c0 0.785-0.637 1.422-1.422 1.422h-17.067c-0.785 0-1.422-0.637-1.422-1.422v-1.422h19.911v1.422z"></path>
</symbol>
<symbol id="icon-vk" viewBox="0 0 32 32">
<path d="M25.28 14.908c0.341-0.43 0.612-0.774 0.812-1.034 1.441-1.866 2.066-3.057 1.874-3.577l-0.075-0.122c-0.050-0.073-0.179-0.14-0.387-0.201s-0.475-0.070-0.8-0.030l-3.599 0.025c-0.083-0.008-0.167-0.006-0.25 0.006s-0.137 0.025-0.163 0.037c-0.025 0.012-0.046 0.022-0.062 0.030l-0.050 0.037c-0.042 0.024-0.087 0.067-0.137 0.128s-0.092 0.132-0.125 0.213c-0.392 0.981-0.837 1.894-1.337 2.738-0.308 0.503-0.592 0.939-0.85 1.308s-0.475 0.641-0.65 0.815c-0.175 0.174-0.333 0.315-0.475 0.42s-0.25 0.15-0.325 0.134c-0.075-0.016-0.146-0.032-0.212-0.049-0.117-0.073-0.211-0.172-0.281-0.298s-0.119-0.284-0.144-0.474c-0.025-0.19-0.040-0.355-0.044-0.493s-0.002-0.332 0.006-0.584c0.008-0.252 0.012-0.422 0.012-0.511 0-0.308 0.006-0.643 0.019-1.004s0.023-0.647 0.031-0.858c0.008-0.211 0.012-0.434 0.012-0.669s-0.015-0.42-0.044-0.554c-0.029-0.134-0.073-0.263-0.131-0.389s-0.144-0.223-0.256-0.292c-0.113-0.069-0.252-0.124-0.419-0.164-0.442-0.098-1.004-0.15-1.687-0.158-1.55-0.016-2.545 0.082-2.986 0.292-0.175 0.089-0.333 0.211-0.475 0.365-0.15 0.179-0.171 0.276-0.062 0.292 0.5 0.073 0.854 0.248 1.062 0.523l0.075 0.146c0.058 0.106 0.116 0.292 0.175 0.56s0.096 0.564 0.113 0.888c0.042 0.592 0.042 1.099 0 1.521s-0.081 0.75-0.119 0.985c-0.038 0.235-0.094 0.426-0.169 0.572s-0.125 0.236-0.15 0.268c-0.025 0.032-0.046 0.053-0.062 0.061-0.108 0.040-0.221 0.061-0.337 0.061s-0.258-0.057-0.425-0.171c-0.167-0.113-0.34-0.269-0.518-0.468s-0.381-0.477-0.606-0.834c-0.225-0.357-0.458-0.779-0.7-1.265l-0.2-0.353c-0.125-0.227-0.296-0.557-0.512-0.991s-0.408-0.854-0.575-1.259c-0.067-0.17-0.167-0.3-0.3-0.389l-0.062-0.037c-0.042-0.032-0.108-0.067-0.2-0.103s-0.187-0.063-0.287-0.079l-3.424 0.024c-0.35 0-0.587 0.077-0.712 0.232l-0.050 0.073c-0.025 0.041-0.038 0.106-0.038 0.195s0.025 0.199 0.075 0.328c0.5 1.144 1.044 2.247 1.631 3.309s1.098 1.919 1.531 2.568c0.433 0.649 0.875 1.261 1.325 1.837s0.748 0.945 0.893 1.107c0.146 0.163 0.26 0.284 0.344 0.365l0.312 0.292c0.2 0.195 0.494 0.428 0.881 0.7s0.816 0.539 1.287 0.803c0.47 0.264 1.018 0.478 1.643 0.645s1.233 0.233 1.824 0.201h1.437c0.292-0.024 0.512-0.113 0.662-0.268l0.050-0.061c0.033-0.048 0.065-0.124 0.094-0.225s0.044-0.213 0.044-0.334c-0.009-0.349 0.019-0.664 0.081-0.943s0.133-0.491 0.212-0.633c0.079-0.142 0.169-0.261 0.269-0.359s0.171-0.156 0.212-0.176c0.042-0.020 0.075-0.034 0.1-0.043 0.2-0.065 0.435-0.002 0.706 0.189s0.525 0.426 0.762 0.706c0.237 0.28 0.523 0.594 0.856 0.943s0.625 0.608 0.875 0.779l0.25 0.146c0.167 0.097 0.383 0.186 0.65 0.268s0.5 0.101 0.7 0.061l3.199-0.049c0.317 0 0.562-0.050 0.737-0.152s0.279-0.213 0.312-0.334c0.033-0.122 0.035-0.259 0.006-0.413s-0.058-0.261-0.087-0.322c-0.029-0.061-0.056-0.112-0.081-0.152-0.417-0.73-1.212-1.627-2.387-2.689l-0.025-0.024-0.012-0.012-0.012-0.012h-0.013c-0.533-0.495-0.871-0.828-1.012-0.998-0.258-0.324-0.317-0.653-0.175-0.985 0.099-0.252 0.474-0.784 1.124-1.595z"></path>
</symbol>
<symbol id="icon-wallet" viewBox="0 0 32 32">
<path d="M25.6 9.6h-20v-0.8l17.6-1.408v1.408h2.4v-2.4c0-1.76-1.426-2.995-3.166-2.747l-16.066 2.294c-1.742 0.25-3.168 1.893-3.168 3.653v16c0 1.766 1.432 3.2 3.2 3.2h19.2c1.766 0 3.2-1.434 3.2-3.2v-12.8c0-1.766-1.434-3.2-3.2-3.2z"></path>
</symbol>
<symbol id="icon-warning" viewBox="0 0 32 32">
<path d="M27.264 20.587l-8.181-13.568c-0.672-1.052-1.834-1.688-3.083-1.688s-2.41 0.636-3.083 1.688l-8.181 13.568c-0.588 0.981-0.609 2.2-0.053 3.2 0.642 1.125 1.84 1.818 3.136 1.813h16.363c1.287 0.014 2.483-0.662 3.136-1.771 0.572-1.011 0.551-2.252-0.053-3.243v0zM16 21.333c-0.589 0-1.067-0.478-1.067-1.067s0.478-1.067 1.067-1.067c0.589 0 1.067 0.478 1.067 1.067s-0.478 1.067-1.067 1.067zM17.067 17.067c0 0.589-0.478 1.067-1.067 1.067s-1.067-0.478-1.067-1.067v-4.267c0-0.589 0.478-1.067 1.067-1.067s1.067 0.478 1.067 1.067v4.267z"></path>
</symbol>
<symbol id="icon-whatsapp" viewBox="0 0 32 32">
<path d="M2.672 29.333l1.803-6.624c-1.188-2.036-1.812-4.352-1.808-6.709 0-7.364 5.969-13.333 13.333-13.333s13.333 5.969 13.333 13.333c0 7.364-5.969 13.333-13.333 13.333-2.356 0.004-4.671-0.62-6.707-1.807l-6.621 1.807zM11.188 9.744c-0.172 0.011-0.34 0.056-0.495 0.133-0.145 0.082-0.277 0.184-0.392 0.304-0.16 0.151-0.251 0.281-0.348 0.408-0.493 0.641-0.758 1.429-0.753 2.237 0.003 0.653 0.173 1.289 0.44 1.884 0.545 1.203 1.443 2.476 2.628 3.656 0.285 0.284 0.564 0.569 0.864 0.835 1.471 1.295 3.224 2.229 5.12 2.728l0.759 0.116c0.247 0.013 0.493-0.005 0.741-0.017 0.388-0.020 0.767-0.125 1.111-0.308 0.221-0.117 0.325-0.176 0.511-0.293 0 0 0.057-0.037 0.167-0.12 0.18-0.133 0.291-0.228 0.44-0.384 0.111-0.115 0.207-0.249 0.28-0.403 0.104-0.217 0.208-0.632 0.251-0.977 0.032-0.264 0.023-0.408 0.019-0.497-0.005-0.143-0.124-0.291-0.253-0.353l-0.776-0.348c0 0-1.16-0.505-1.868-0.828-0.075-0.033-0.155-0.051-0.236-0.055-0.185-0.019-0.368 0.043-0.504 0.169v-0.003c-0.007 0-0.096 0.076-1.060 1.244-0.113 0.152-0.307 0.221-0.491 0.173-0.087-0.023-0.172-0.053-0.255-0.088-0.165-0.069-0.223-0.096-0.336-0.145l-0.007-0.003c-0.763-0.333-1.469-0.783-2.093-1.333-0.168-0.147-0.324-0.307-0.484-0.461-0.525-0.502-0.982-1.071-1.36-1.691l-0.079-0.127c-0.056-0.085-0.102-0.177-0.136-0.273-0.051-0.196 0.081-0.353 0.081-0.353s0.324-0.355 0.475-0.547c0.125-0.16 0.242-0.326 0.351-0.497 0.157-0.253 0.207-0.513 0.124-0.715-0.373-0.912-0.76-1.82-1.157-2.721-0.079-0.179-0.312-0.307-0.524-0.332-0.072-0.008-0.144-0.016-0.216-0.021-0.179-0.009-0.358-0.007-0.537 0.005v0.001z"></path>
</symbol>
<symbol id="icon-world" viewBox="0 0 32 32">
<path d="M16 2.667c-7.364 0-13.333 5.97-13.333 13.333s5.97 13.333 13.333 13.333c7.364 0 13.333-5.97 13.333-13.333 0-3.536-1.405-6.928-3.905-9.428s-5.892-3.905-9.428-3.905zM6.667 21.067c0.871 0.226 1.767 0.347 2.667 0.36 1.506 0.041 2.982-0.429 4.187-1.333 2.28-1.787 2.28-4.080 2.28-5.92-0.101-1.065 0.069-2.138 0.493-3.12 0.386-0.525 0.9-0.943 1.493-1.213 0.424-0.248 0.833-0.519 1.227-0.813 0.829-0.655 1.472-1.514 1.867-2.493 1.876 0.96 3.426 2.454 4.453 4.293-1.907 0.267-4.613 0.893-5.147 3.373-0.12 0.593-0.183 1.195-0.187 1.8 0.043 0.676-0.090 1.351-0.387 1.96l-0.133 0.227c-0.867 1.44-1.84 3.080-0.52 5.333 0.16 0.28 0.333 0.547 0.507 0.813 0.355 0.41 0.594 0.907 0.693 1.44-1.311 0.578-2.727 0.882-4.16 0.893-3.901-0.019-7.48-2.167-9.333-5.6z"></path>
</symbol>
<symbol id="icon-yeni-tikili" viewBox="0 0 32 32">
<path d="M16 25.333h2.667v-17.333l8.525 3.653c0.491 0.21 0.808 0.693 0.808 1.227v12.453h2.667v2.667h-29.333v-2.667h2.667v-17.8c-0-0.527 0.31-1.005 0.792-1.219l10.271-4.565c0.206-0.092 0.445-0.073 0.635 0.051s0.303 0.334 0.303 0.56v22.973z"></path>
<path d="M18.667 25.333v-17.333l8.525 3.653c0.491 0.21 0.808 0.693 0.808 1.227v12.453h2.667v2.667h-11.947l-0.053-2.667z"></path>
</symbol>
<symbol id="icon-youtube" viewBox="0 0 32 32">
<path d="M28.724 8.664c0.609 2.376 0.609 7.336 0.609 7.336s0 4.96-0.609 7.336c-0.339 1.313-1.329 2.347-2.584 2.696-2.279 0.635-10.14 0.635-10.14 0.635s-7.857 0-10.14-0.635c-1.26-0.355-2.249-1.387-2.584-2.696-0.609-2.376-0.609-7.336-0.609-7.336s0-4.96 0.609-7.336c0.339-1.313 1.329-2.347 2.584-2.696 2.283-0.635 10.14-0.635 10.14-0.635s7.861 0 10.14 0.635c1.26 0.355 2.249 1.387 2.584 2.696zM13.333 20.667l8-4.667-8-4.667v9.333z"></path>
</symbol>
<symbol id="icon-line-down" viewBox="0 0 32 32">
<path d="M24.123 15.737c-0.353-0.033-0.704 0.077-0.976 0.303l-5.813 6.44v-15.813c0-0.736-0.597-1.333-1.333-1.333s-1.333 0.597-1.333 1.333v15.813l-5.813-6.44c-0.367-0.305-0.868-0.391-1.316-0.226s-0.773 0.557-0.853 1.027c-0.081 0.47 0.096 0.947 0.462 1.252l8 8.267 0.2 0.12 0.173 0.093c0.309 0.119 0.651 0.119 0.96 0l0.173-0.093 0.2-0.12 8-8.267c0.273-0.226 0.444-0.551 0.477-0.904s-0.077-0.704-0.303-0.976c-0.226-0.273-0.551-0.444-0.904-0.477z"></path>
</symbol>
<symbol id="icon-line-left" viewBox="0 0 32 32">
<path d="M16.262 24.12c0.033-0.353-0.077-0.704-0.303-0.976l-6.44-5.813h15.813c0.736 0 1.333-0.597 1.333-1.333s-0.597-1.333-1.333-1.333h-15.813l6.44-5.813c0.305-0.367 0.391-0.868 0.226-1.316s-0.557-0.773-1.027-0.853c-0.47-0.081-0.947 0.096-1.252 0.462l-8.267 8-0.12 0.2-0.093 0.173c-0.119 0.309-0.119 0.651 0 0.96l0.093 0.173 0.12 0.2 8.267 8c0.226 0.273 0.551 0.444 0.904 0.477s0.704-0.077 0.976-0.303c0.273-0.226 0.444-0.551 0.477-0.904z"></path>
</symbol>
<symbol id="icon-line-right" viewBox="0 0 32 32">
<path d="M15.739 7.876c-0.033 0.353 0.077 0.704 0.303 0.976l6.44 5.813h-15.813c-0.736 0-1.333 0.597-1.333 1.333s0.597 1.333 1.333 1.333h15.813l-6.44 5.813c-0.305 0.367-0.391 0.868-0.226 1.316s0.557 0.773 1.027 0.853c0.47 0.081 0.947-0.096 1.252-0.462l8.267-8 0.12-0.2 0.093-0.173c0.119-0.309 0.119-0.651 0-0.96l-0.093-0.173-0.12-0.2-8.267-8c-0.226-0.273-0.551-0.444-0.904-0.477s-0.704 0.077-0.976 0.303c-0.273 0.226-0.444 0.551-0.477 0.904z"></path>
</symbol>
<symbol id="icon-line-up" viewBox="0 0 32 32">
<path d="M7.878 16.259c0.353 0.033 0.704-0.077 0.976-0.303l5.813-6.44v15.813c0 0.736 0.597 1.333 1.333 1.333s1.333-0.597 1.333-1.333v-15.813l5.813 6.44c0.367 0.305 0.868 0.391 1.316 0.226s0.773-0.557 0.853-1.027c0.081-0.47-0.096-0.947-0.462-1.252l-8-8.267-0.2-0.12-0.173-0.093c-0.309-0.119-0.651-0.119-0.96 0l-0.173 0.093-0.2 0.12-8 8.267c-0.273 0.226-0.444 0.551-0.477 0.904s0.077 0.704 0.303 0.976c0.226 0.273 0.551 0.444 0.904 0.477z"></path>
</symbol>
<symbol id="icon-down" viewBox="0 0 32 32">
<path d="M10.264 14.705l4.797 5.834c0.409 0.497 1.143 0.569 1.639 0.16 0.056-0.046 0.107-0.097 0.153-0.152l4.885-5.834c0.413-0.493 0.348-1.228-0.145-1.641-0.21-0.176-0.474-0.272-0.748-0.272h-9.681c-0.643 0-1.165 0.521-1.165 1.165 0 0.27 0.094 0.531 0.265 0.74z"></path>
</symbol>
<symbol id="icon-left" viewBox="0 0 32 32">
<path d="M18.181 22.459l-5.834-4.797c-0.497-0.409-0.569-1.143-0.16-1.639 0.046-0.056 0.097-0.107 0.152-0.153l5.834-4.885c0.493-0.413 1.228-0.348 1.641 0.145 0.176 0.21 0.272 0.474 0.272 0.748v9.681c0 0.643-0.521 1.165-1.165 1.165-0.27 0-0.531-0.094-0.74-0.265z"></path>
</symbol>
<symbol id="icon-right" viewBox="0 0 32 32">
<path d="M13.827 10.978l5.834 4.797c0.497 0.409 0.569 1.143 0.16 1.639-0.046 0.056-0.097 0.107-0.152 0.153l-5.834 4.885c-0.493 0.413-1.228 0.348-1.641-0.145-0.176-0.21-0.272-0.474-0.272-0.748v-9.681c0-0.643 0.521-1.165 1.165-1.165 0.27 0 0.531 0.094 0.74 0.265z"></path>
</symbol>
<symbol id="icon-up" viewBox="0 0 32 32">
<path d="M10.264 18.895l4.797-5.834c0.409-0.497 1.143-0.569 1.639-0.16 0.056 0.046 0.107 0.097 0.153 0.152l4.885 5.834c0.413 0.493 0.348 1.228-0.145 1.641-0.21 0.176-0.474 0.272-0.748 0.272h-9.681c-0.643 0-1.165-0.521-1.165-1.165 0-0.27 0.094-0.531 0.265-0.74z"></path>
</symbol>
<symbol id="icon-evelani" viewBox="0 0 32 32">
<path d="M18.057 3.289l9.771 6.49c0.939 0.624 1.504 1.684 1.504 2.821v13.36c0 1.863-1.492 3.374-3.333 3.374h-5.183c-0.588 0-1.096-0.41-1.221-0.984l-1.153-5.298c1.045-0.766 1.724-2.011 1.724-3.417 0-2.329-1.865-4.217-4.167-4.217s-4.167 1.888-4.167 4.217c0 1.359 0.635 2.567 1.621 3.339l0.103 0.078-1.153 5.298c-0.125 0.575-0.633 0.984-1.221 0.984h-5.183c-1.841 0-3.333-1.51-3.333-3.374v-13.36c0-1.137 0.566-2.197 1.504-2.821l9.771-6.49c1.249-0.83 2.866-0.83 4.115 0z"></path>
</symbol>
<symbol id="icon-kohne-tikili" viewBox="0 0 32 32">
<path d="M28 25.333h2.667v2.667h-29.333v-2.667h2.667v-20c0-0.736 0.597-1.333 1.333-1.333h13.333c0.736 0 1.333 0.597 1.333 1.333v20h2.667v-13.333h4c0.736 0 1.333 0.597 1.333 1.333v12zM9.333 14.667v2.667h5.333v-2.667h-5.333zM9.333 9.333v2.667h5.333v-2.667h-5.333z"></path>
</symbol>
<symbol id="icon-notification" viewBox="0 0 32 32">
<path d="M20.877 26.559c-0.844 1.87-2.736 3.13-4.877 3.036-2.142 0.093-4.033-1.167-4.877-3.036h9.754zM10.102 4.669c1.947-1.737 4.534-2.535 7.1-2.191 4.393 0.686 7.649 4.48 7.766 8.97l0.002 6.452 2.402 2.461c0.617 0.639 0.798 1.592 0.461 2.42-0.31 0.759-1 1.277-1.791 1.362l-0.218 0.012h-19.647c-0.88-0.005-1.671-0.546-2.009-1.374-0.307-0.752-0.185-1.609 0.303-2.238l0.157-0.182 2.402-2.461v-6.351c0.005-2.637 1.124-5.144 3.071-6.88z"></path>
</symbol>
<symbol id="icon-lock" viewBox="0 0 32 32">
<path fill="#5f7beb" style="fill: var(--color1, #5f7beb)" d="M22 0c5.52 0.006 9.993 4.48 10 9.999v0.001c-0.006 5.52-4.48 9.993-9.999 10h-0.001c-1.285 0-2.537-0.245-3.728-0.725l-6.393 3.195-1.246 3.739c-0.067 0.201-0.222 0.356-0.418 0.422l-0.005 0.001-3.682 1.227-1.23 3.682c-0.091 0.267-0.34 0.456-0.633 0.456-0.074 0-0.146-0.012-0.213-0.035l0.005 0.001-4-1.333c-0.267-0.091-0.456-0.34-0.457-0.633v-2.668c0-0.176 0.069-0.345 0.194-0.471l12.713-12.713c-0.573-1.213-0.907-2.635-0.907-4.135 0-0.006 0-0.011 0-0.017v0.001c0.008-5.519 4.481-9.991 9.999-9.998h0.001zM23.333 10.667c1.064-0.052 1.907-0.928 1.907-2s-0.843-1.948-1.902-2l-0.005-0c-1.064 0.052-1.907 0.928-1.907 2s0.843 1.948 1.902 2l0.005 0z"></path>
</symbol>
<symbol id="icon-check" viewBox="0 0 35 32">
<path d="M34.394 6.554l-17.856 23.894c-0.716 0.945-1.839 1.549-3.103 1.549-1.247 0-2.357-0.588-3.067-1.502l-0.007-0.009-9.536-12.384c-0.515-0.672-0.825-1.525-0.825-2.45 0-0.54 0.106-1.055 0.298-1.526l-0.010 0.027c-0.49-0.643-0.786-1.457-0.786-2.34 0-2.142 1.736-3.878 3.878-3.878s3.878 1.736 3.878 3.878c0 0.5-0.095 0.977-0.267 1.416l0.009-0.026 6.368 8.285 14.771-19.91c0.718-0.962 1.853-1.578 3.132-1.578 1.635 0 3.035 1.007 3.614 2.435l0.009 0.026c0.544 1.322 0.352 2.835-0.502 3.974z"></path>
</symbol>
    <symbol id="icon-loupe" viewBox="0 0 32 32">
        <path fill="#5f7beb" style="fill: var(--color1, #5f7beb)" d="M31.609 29.724l-9.1-9.1c1.763-2.177 2.824-4.944 2.824-7.957 0-6.984-5.683-12.667-12.667-12.667s-12.666 5.683-12.666 12.666 5.683 12.667 12.667 12.667c3.013 0 5.78-1.061 7.957-2.824l9.1 9.1c0.26 0.26 0.601 0.391 0.943 0.391s0.683-0.131 0.943-0.391c0.521-0.521 0.521-1.364-0-1.885zM12.667 22.667c-5.515 0-10-4.485-10-10s4.485-10 10-10 10 4.485 10 10-4.485 10-10 10z"></path>
    </symbol>
<symbol id="icon-triangle-error" viewBox="0 0 39 32">
<path fill="#ed5f74" style="fill: var(--color1, #ed5f74)" d="M21.356 18.868c0 0.906-0.738 1.642-1.652 1.642-0.001 0-0.003 0-0.005 0-0.908 0-1.644-0.735-1.647-1.642v-6.565c0-0.906 0.738-1.639 1.649-1.639 0.916 0 1.654 0.734 1.654 1.639zM19.705 25.433c-0.001 0-0.003 0-0.005 0-0.908 0-1.644-0.735-1.647-1.642v-0c0-0.906 0.738-1.642 1.649-1.642 0.916 0 1.654 0.736 1.654 1.642s-0.738 1.642-1.652 1.642zM24.448 3.409c-1.016-1.572-2.76-2.598-4.743-2.598s-3.727 1.026-4.73 2.576l-0.013 0.022-12.586 20.874c-0.44 0.723-0.701 1.597-0.701 2.532 0 0.878 0.23 1.702 0.632 2.416l-0.013-0.025c0.971 1.678 2.758 2.789 4.803 2.789 0.007 0 0.015 0 0.022-0h25.171c0.018 0 0.039 0 0.059 0 2.019 0 3.785-1.082 4.751-2.698l0.014-0.025c0.402-0.698 0.639-1.534 0.639-2.426 0-0.948-0.268-1.834-0.732-2.585l0.012 0.021z"></path>
</symbol>
    <symbol id="icon-plusnew" viewBox="0 0 32 32">
        <path fill="#5f7beb" style="fill: var(--color1, #5f7beb)" d="M16 0c-8.823 0-16 7.177-16 16s7.177 16 16 16 16-7.177 16-16-7.177-16-16-16zM23 17.333h-5.667v5.667c0 0.736-0.597 1.333-1.333 1.333s-1.333-0.597-1.333-1.333v-5.667h-5.667c-0.736 0-1.333-0.597-1.333-1.333s0.597-1.333 1.333-1.333h5.667v-5.667c0-0.736 0.597-1.333 1.333-1.333s1.333 0.597 1.333 1.333v5.667h5.667c0.736 0 1.333 0.597 1.333 1.333s-0.597 1.333-1.333 1.333z"></path>
    </symbol>

    <symbol id="icon-degrees" viewBox="0 0 32 32">
        <path fill="#5f7beb" style="fill: var(--color1, #5f7beb)" d="M20.143 20.978c-0.465 0-0.869-0.346-0.929-0.819-0.065-0.514 0.298-0.983 0.812-1.048 2.962-0.377 5.615-1.18 7.47-2.261 1.696-0.988 2.63-2.15 2.63-3.271 0-1.236-1.093-2.247-2.010-2.877-0.427-0.293-0.534-0.877-0.241-1.304s0.877-0.534 1.304-0.241c1.846 1.27 2.822 2.799 2.822 4.422 0 1.842-1.231 3.533-3.561 4.891-2.097 1.222-4.924 2.086-8.177 2.501-0.040 0.005-0.080 0.007-0.12 0.007z"></path>
        <path fill="#5f7beb" style="fill: var(--color1, #5f7beb)" d="M15.771 19.635l-2.5-2.5c-0.366-0.366-0.96-0.366-1.326 0s-0.366 0.96 0 1.326l0.73 0.73c-2.801-0.289-5.345-0.941-7.315-1.889-2.215-1.065-3.486-2.422-3.486-3.723 0-1.103 0.91-2.25 2.561-3.229 0.446-0.264 0.593-0.839 0.329-1.284s-0.839-0.593-1.285-0.329c-2.876 1.705-3.48 3.574-3.48 4.842 0 2.080 1.615 4.002 4.548 5.413 2.276 1.094 5.221 1.828 8.429 2.111l-1.031 1.032c-0.366 0.366-0.366 0.96 0 1.326 0.183 0.183 0.423 0.274 0.663 0.274s0.48-0.092 0.663-0.274l2.5-2.5c0.366-0.366 0.366-0.96 0-1.326z"></path>
        <path fill="#5f7beb" style="fill: var(--color1, #5f7beb)" d="M9.819 11.701v-0.226c0-0.796-0.487-0.95-1.14-0.95-0.404 0-0.534-0.356-0.534-0.712s0.131-0.713 0.534-0.713c0.451 0 0.926-0.059 0.926-1.021 0-0.689-0.392-0.855-0.879-0.855-0.582 0-0.879 0.143-0.879 0.606 0 0.404-0.178 0.677-0.867 0.677-0.855 0-0.962-0.178-0.962-0.748 0-0.926 0.665-2.125 2.707-2.125 1.508 0 2.648 0.546 2.648 2.149 0 0.867-0.321 1.674-0.914 1.947 0.701 0.261 1.211 0.784 1.211 1.746v0.226c0 1.947-1.342 2.684-3.004 2.684-2.042 0-2.826-1.247-2.826-2.244 0-0.534 0.226-0.677 0.879-0.677 0.76 0 0.95 0.166 0.95 0.618 0 0.558 0.523 0.689 1.057 0.689 0.808 0 1.093-0.297 1.093-1.069z"></path>
        <path fill="#5f7beb" style="fill: var(--color1, #5f7beb)" d="M18.879 11.476v0.107c0 2.042-1.271 2.803-2.909 2.803s-2.921-0.76-2.921-2.803v-3.147c0-2.042 1.318-2.803 3.028-2.803 2.007 0 2.803 1.247 2.803 2.232 0 0.57-0.273 0.748-0.867 0.748-0.511 0-0.962-0.131-0.962-0.677 0-0.451-0.475-0.689-1.033-0.689-0.701 0-1.116 0.368-1.116 1.188v1.069c0.38-0.416 0.915-0.522 1.485-0.522 1.354 0 2.494 0.594 2.494 2.494zM14.901 11.713c0 0.819 0.404 1.176 1.069 1.176s1.057-0.356 1.057-1.176v-0.107c0-0.867-0.392-1.199-1.069-1.199-0.641 0-1.057 0.309-1.057 1.093z"></path>
        <path fill="#5f7beb" style="fill: var(--color1, #5f7beb)" d="M20.316 11.583v-3.147c0-2.042 1.27-2.803 2.909-2.803s2.921 0.76 2.921 2.803v3.147c0 2.042-1.282 2.803-2.921 2.803s-2.909-0.76-2.909-2.803zM24.294 8.436c0-0.819-0.404-1.188-1.069-1.188s-1.057 0.368-1.057 1.188v3.147c0 0.819 0.392 1.188 1.057 1.188s1.069-0.368 1.069-1.188z"></path>
        <path fill="#5f7beb" style="fill: var(--color1, #5f7beb)" d="M28.397 5.625c-1.551 0-2.813-1.262-2.813-2.813s1.261-2.813 2.813-2.813c1.551 0 2.813 1.262 2.813 2.813s-1.262 2.813-2.813 2.813zM28.397 1.875c-0.517 0-0.938 0.421-0.938 0.938s0.42 0.938 0.938 0.938c0.517 0 0.938-0.42 0.938-0.938s-0.421-0.938-0.938-0.938z"></path>
    </symbol>
 <symbol id="icon-gold" viewBox="0 0 38 32">
<path  d="M11.032 0c-0.836 0-1.64 0.333-2.232 0.924l-7.624 7.624c-0.571 0.571-0.924 1.36-0.924 2.232 0 0.814 0.308 1.556 0.814 2.115l-0.002-0.003 14.848 16.501c0.58 0.643 1.417 1.046 2.347 1.046s1.767-0.403 2.345-1.043l0.003-0.003 14.848-16.501c0.503-0.557 0.811-1.299 0.811-2.113 0-0.871-0.353-1.661-0.924-2.232l-7.624-7.624c-0.571-0.571-1.36-0.924-2.232-0.924-0 0-0 0-0.001 0h0z"></path>
</symbol>
    <symbol id="icon-youtube-1" viewBox="0 0 32 32">
        <path fill="#5f7beb" style="fill: var(--color1, #5f7beb)" d="M20.925 10.687l-7.070-3.868c-0.406-0.222-0.887-0.214-1.285 0.022s-0.636 0.654-0.636 1.117v7.67c0 0.461 0.236 0.878 0.632 1.114 0.207 0.124 0.436 0.186 0.666 0.186 0.21 0 0.421-0.052 0.615-0.157l7.070-3.802c0.42-0.226 0.682-0.662 0.684-1.139s-0.257-0.915-0.676-1.144zM13.809 14.663v-5.732l5.284 2.891z"></path>
        <path fill="#5f7beb" style="fill: var(--color1, #5f7beb)" d="M31.765 5.721l-0.001-0.015c-0.027-0.258-0.297-2.549-1.411-3.714-1.287-1.371-2.747-1.537-3.449-1.617-0.058-0.007-0.111-0.013-0.159-0.019l-0.056-0.006c-4.23-0.308-10.619-0.35-10.683-0.35l-0.006-0-0.006 0c-0.064 0-6.453 0.042-10.721 0.35l-0.056 0.006c-0.045 0.006-0.095 0.012-0.15 0.018-0.694 0.080-2.138 0.247-3.429 1.667-1.061 1.153-1.367 3.395-1.399 3.647l-0.004 0.033c-0.010 0.107-0.235 2.659-0.235 5.22v2.395c0 2.562 0.226 5.113 0.235 5.22l0.002 0.016c0.027 0.253 0.297 2.502 1.405 3.668 1.21 1.325 2.741 1.5 3.564 1.594 0.13 0.015 0.242 0.028 0.319 0.041l0.074 0.010c2.443 0.232 10.101 0.347 10.426 0.352l0.010 0 0.010-0c0.064-0 6.453-0.042 10.683-0.35l0.056-0.006c0.053-0.007 0.114-0.013 0.179-0.020 0.69-0.073 2.126-0.225 3.399-1.626 1.061-1.153 1.368-3.395 1.399-3.647l0.004-0.033c0.010-0.107 0.236-2.659 0.236-5.22v-2.395c-0-2.562-0.226-5.113-0.236-5.22zM30.125 13.335c0 2.371-0.207 4.812-0.227 5.037-0.080 0.617-0.403 2.036-0.92 2.598-0.797 0.877-1.615 0.964-2.213 1.027-0.072 0.008-0.139 0.015-0.2 0.022-4.092 0.296-10.239 0.341-10.523 0.343-0.318-0.005-7.864-0.12-10.232-0.34-0.121-0.020-0.252-0.035-0.391-0.051-0.701-0.080-1.66-0.19-2.398-1.002l-0.017-0.019c-0.508-0.529-0.822-1.855-0.902-2.572-0.015-0.169-0.227-2.64-0.227-5.044v-2.395c0-2.368 0.207-4.807 0.227-5.036 0.095-0.727 0.425-2.060 0.92-2.598 0.821-0.903 1.687-1.003 2.26-1.070 0.055-0.006 0.106-0.012 0.153-0.018 4.151-0.297 10.343-0.342 10.565-0.343 0.222 0.001 6.412 0.046 10.526 0.343 0.051 0.006 0.106 0.013 0.165 0.020 0.589 0.067 1.48 0.169 2.297 1.040l0.008 0.008c0.508 0.529 0.822 1.879 0.902 2.609 0.014 0.16 0.227 2.636 0.227 5.045z"></path>
    </symbol>
    <symbol id="icon-mapshowicon" viewBox="0 0 36 32">
        <path fill="#e97b4f" style="fill: #e97b4f" d="M32.004 26.9l-4-1.78v-20l4 1.78zM12.004 5.1l4 1.78v20l-4-1.78zM34.824 3.78l-8-3.6h-1.64l-7.18 3.22-7.18-3.22h-0.1l-0.24-0.18h-1.2l-8 3.6c-0.758 0.296-1.284 1.020-1.284 1.868 0 0.047 0.002 0.093 0.005 0.139l-0-0.006v24.4c0.002 1.103 0.897 1.996 2 1.996 0.297 0 0.579-0.065 0.832-0.181l-0.012 0.005 7.18-3.22 7.18 3.22h0.1c0.211 0.101 0.459 0.16 0.72 0.16s0.509-0.059 0.73-0.164l-0.010 0.004h0.1l7.18-3.22 7.18 3.22c0.241 0.112 0.522 0.179 0.819 0.18h0.001c1.105 0 2-0.895 2-2v0-24.4c-0.002-0.806-0.48-1.5-1.168-1.815l-0.012-0.005z"></path>
    </symbol>
    <symbol id="icon-blocked" viewBox="0 0 32 32">
<path d="M27.314 4.686c-3.022-3.022-7.040-4.686-11.314-4.686s-8.292 1.664-11.314 4.686c-3.022 3.022-4.686 7.040-4.686 11.314s1.664 8.292 4.686 11.314c3.022 3.022 7.040 4.686 11.314 4.686s8.292-1.664 11.314-4.686c3.022-3.022 4.686-7.040 4.686-11.314s-1.664-8.292-4.686-11.314zM28 16c0 2.588-0.824 4.987-2.222 6.949l-16.727-16.727c1.962-1.399 4.361-2.222 6.949-2.222 6.617 0 12 5.383 12 12zM4 16c0-2.588 0.824-4.987 2.222-6.949l16.727 16.727c-1.962 1.399-4.361 2.222-6.949 2.222-6.617 0-12-5.383-12-12z"></path>
</symbol>
<symbol id="icon-checkmark" viewBox="0 0 32 32">
<path d="M27 4l-15 15-7-7-5 5 12 12 20-20z"></path>
</symbol>
<symbol id="icon-checkmark-circle" viewBox="0 0 32 32">
<path d="M19.161 21.141c-0.755 0.756-1.76 1.172-2.828 1.172s-2.073-0.416-2.828-1.172l-5.667-5.666c-0.756-0.755-1.172-1.76-1.172-2.828s0.416-2.073 1.172-2.828c0.755-0.756 1.76-1.172 2.828-1.172s2.073 0.416 2.828 1.172l2.839 2.837 7.836-7.836c-2.56-2.183-5.875-3.507-9.503-3.507-8.1 0-14.667 6.567-14.667 14.666s6.567 14.667 14.667 14.667c8.1 0 14.666-6.567 14.666-14.667 0-1.516-0.23-2.977-0.657-4.353z"></path>
<path d="M16.333 19.646c-0.341 0-0.683-0.131-0.943-0.391l-5.666-5.667c-0.521-0.521-0.521-1.364 0-1.885s1.364-0.521 1.885 0l4.724 4.724 13.391-13.39c0.521-0.521 1.364-0.521 1.885 0s0.521 1.364 0 1.885l-14.333 14.333c-0.26 0.26-0.601 0.391-0.943 0.391z"></path>
</symbol>
<symbol id="icon-checkmark-circle-2" viewBox="0 0 32 32">
<path d="M14.666 30.646c-8.086 0-14.666-6.58-14.666-14.666s6.58-14.666 14.666-14.666c2.812 0 5.548 0.801 7.912 2.319 0.464 0.299 0.6 0.917 0.301 1.383s-0.917 0.6-1.383 0.301c-2.040-1.311-4.402-2.003-6.83-2.003-6.984 0-12.666 5.682-12.666 12.666s5.682 12.666 12.666 12.666c6.984 0 12.666-5.682 12.666-12.666 0-0.417-0.020-0.831-0.059-1.237-0.053-0.551 0.349-1.039 0.899-1.092 0.552-0.051 1.039 0.349 1.092 0.899 0.045 0.471 0.068 0.948 0.068 1.431 0 8.086-6.58 14.666-14.666 14.666z"></path>
<path d="M16.333 19.313c-0.256 0-0.512-0.097-0.707-0.293l-6-6c-0.391-0.391-0.391-1.024 0-1.415s1.024-0.391 1.415 0l5.293 5.293 13.958-13.958c0.391-0.391 1.024-0.391 1.415 0s0.391 1.024 0 1.415l-14.666 14.666c-0.196 0.195-0.452 0.292-0.708 0.292z"></path>
</symbol>
<symbol id="icon-minus" viewBox="0 0 32 32">
<path d="M0 14.75h32v2.5h-32v-2.5z"></path>
</symbol>
<symbol id="icon-exclamation" viewBox="0 0 32 32">
<path d="M16 0c-8.844 0-16 7.157-16 16s7.157 16 16 16c8.844 0 16-7.157 16-16s-7.157-16-16-16zM16 29.5c-7.462 0-13.5-6.038-13.5-13.5s6.038-13.5 13.5-13.5c7.462 0 13.5 6.038 13.5 13.5s-6.038 13.5-13.5 13.5z"></path>
<path d="M16 8.055c-0.69 0-1.25 0.56-1.25 1.25v8.050c0 0.69 0.56 1.25 1.25 1.25s1.25-0.56 1.25-1.25v-8.050c0-0.69-0.56-1.25-1.25-1.25z"></path>
<path d="M17.688 21.823c0 0.932-0.756 1.688-1.688 1.688s-1.688-0.756-1.688-1.688c0-0.932 0.756-1.688 1.688-1.688s1.688 0.756 1.688 1.688z"></path>
</symbol>
<symbol id="icon-notification-1" viewBox="0 0 32 32">
<path d="M28.505 22.551c-2.016-1.704-3.172-4.195-3.172-6.833v-3.717c0-4.692-3.485-8.576-8-9.227v-1.44c0-0.737-0.597-1.333-1.333-1.333s-1.333 0.596-1.333 1.333v1.44c-4.516 0.651-8 4.535-8 9.227v3.717c0 2.639-1.156 5.129-3.184 6.844-0.519 0.444-0.816 1.089-0.816 1.772 0 1.287 1.047 2.333 2.333 2.333h22c1.287 0 2.333-1.047 2.333-2.333 0-0.683-0.297-1.328-0.828-1.783z"></path>
<path d="M16 32c2.415 0 4.435-1.721 4.899-4h-9.797c0.464 2.279 2.484 4 4.899 4z"></path>
</symbol>
<symbol id="icon-notification" viewBox="0 0 32 32">
<path d="M18 5.573c-0.368 0-0.667-0.299-0.667-0.667v-2.24c0-0.735-0.599-1.333-1.333-1.333s-1.333 0.599-1.333 1.333v2.24c0 0.368-0.299 0.667-0.667 0.667s-0.667-0.297-0.667-0.667v-2.24c0-1.471 1.196-2.667 2.667-2.667s2.667 1.196 2.667 2.667v2.24c0 0.369-0.299 0.667-0.667 0.667z"></path>
<path d="M16 32c-2.573 0-4.667-2.093-4.667-4.667 0-0.368 0.299-0.667 0.667-0.667s0.667 0.299 0.667 0.667c0 1.837 1.496 3.333 3.333 3.333s3.333-1.496 3.333-3.333c0-0.368 0.299-0.667 0.667-0.667s0.667 0.299 0.667 0.667c0 2.573-2.093 4.667-4.667 4.667z"></path>
<path d="M27.333 28h-22.667c-1.103 0-2-0.897-2-2 0-0.585 0.255-1.139 0.7-1.52 2.101-1.776 3.3-4.36 3.3-7.096v-4.051c0-5.147 4.187-9.333 9.333-9.333s9.333 4.187 9.333 9.333v4.051c0 2.737 1.199 5.32 3.289 7.087 0.456 0.391 0.711 0.944 0.711 1.529 0 1.103-0.896 2-2 2zM16 5.333c-4.412 0-8 3.588-8 8v4.051c0 3.131-1.371 6.084-3.761 8.105-0.153 0.131-0.239 0.316-0.239 0.511 0 0.368 0.299 0.667 0.667 0.667h22.667c0.368 0 0.667-0.299 0.667-0.667 0-0.195-0.085-0.38-0.233-0.507-2.395-2.025-3.767-4.98-3.767-8.109v-4.051c0-4.412-3.588-8-8-8z"></path>
</symbol>
<symbol id="icon-bell" viewBox="0 0 32 32">
<path d="M25.688 16.429v-2.991c0-4.364-2.901-8.063-6.875-9.271v-1.354c0-1.551-1.262-2.813-2.813-2.813s-2.813 1.262-2.813 2.813v1.354c-3.974 1.208-6.875 4.907-6.875 9.271v2.991c0 3.833-1.461 7.468-4.114 10.235-0.26 0.271-0.333 0.671-0.186 1.017s0.487 0.57 0.862 0.57h8.532c0.435 2.137 2.329 3.75 4.593 3.75s4.158-1.613 4.593-3.75h8.532c0.376 0 0.715-0.224 0.862-0.57s0.074-0.746-0.186-1.017c-2.653-2.767-4.114-6.402-4.114-10.235zM15.063 2.813c0-0.517 0.421-0.938 0.938-0.938s0.938 0.421 0.938 0.938v0.983c-0.309-0.030-0.621-0.046-0.938-0.046s-0.629 0.016-0.938 0.046zM16 30.125c-1.222 0-2.264-0.784-2.651-1.875h5.302c-0.387 1.091-1.429 1.875-2.651 1.875zM4.896 26.375c2.135-2.862 3.292-6.325 3.292-9.946v-2.991c0-4.308 3.505-7.813 7.813-7.813s7.813 3.505 7.813 7.813v2.991c0 3.621 1.157 7.084 3.292 9.946z"></path>
<path d="M28.188 13.438c0 0.518 0.42 0.938 0.938 0.938s0.938-0.42 0.938-0.938c0-3.756-1.463-7.288-4.119-9.944-0.366-0.366-0.96-0.366-1.326 0s-0.366 0.96 0 1.326c2.302 2.302 3.57 5.363 3.57 8.618z"></path>
<path d="M2.875 14.375c0.518 0 0.938-0.42 0.938-0.938 0-3.255 1.268-6.316 3.57-8.618 0.366-0.366 0.366-0.96 0-1.326s-0.96-0.366-1.326 0c-2.656 2.656-4.119 6.187-4.119 9.944 0 0.518 0.42 0.938 0.938 0.938z"></path>
</symbol>
<symbol id="icon-bell-1" viewBox="0 0 32 32">
<path d="M16 32c1.918 0 3.57-1.159 4.295-2.813h-8.59c0.725 1.654 2.377 2.813 4.295 2.813z"></path>
<path d="M25.688 15.491v-2.054c0-4.364-2.901-8.063-6.875-9.271v-1.354c0-1.551-1.262-2.813-2.813-2.813s-2.813 1.262-2.813 2.813v1.354c-3.974 1.208-6.875 4.907-6.875 9.271v2.054c0 3.833-1.461 7.468-4.114 10.235-0.26 0.271-0.333 0.671-0.186 1.017s0.487 0.57 0.862 0.57h26.25c0.376 0 0.715-0.224 0.862-0.57s0.074-0.746-0.186-1.017c-2.653-2.767-4.114-6.402-4.114-10.235zM16.938 3.796c-0.309-0.030-0.621-0.046-0.938-0.046s-0.629 0.016-0.938 0.046v-0.983c0-0.517 0.421-0.938 0.938-0.938s0.938 0.421 0.938 0.938z"></path>
<path d="M28.188 13.438c0 0.518 0.42 0.938 0.938 0.938s0.938-0.42 0.938-0.938c0-3.756-1.463-7.288-4.119-9.944-0.366-0.366-0.96-0.366-1.326 0s-0.366 0.96 0 1.326c2.302 2.302 3.57 5.363 3.57 8.618z"></path>
<path d="M2.875 14.375c0.518 0 0.938-0.42 0.938-0.938 0-3.255 1.268-6.316 3.57-8.618 0.366-0.366 0.366-0.96 0-1.326s-0.96-0.366-1.326 0c-2.656 2.656-4.119 6.187-4.119 9.944 0 0.518 0.42 0.938 0.938 0.938z"></path>
</symbol>
</defs>
</svg>
