<svg xmlns="http://www.w3.org/2000/svg" width="22" height="22" viewBox="0 0 22 22">
    <g fill="none" fill-rule="evenodd" opacity=".98">
        <path fill="#F5A623" d="M11 22c6.075 0 11-4.925 11-11S17.075 0 11 0 0 4.925 0 11s4.925 11 11 11z"/>
        <path fill="#FFF" d="M8.3 9.576c.237-.236.356-.52.356-.856 0-.336-.119-.62-.356-.858a1.167 1.167 0 0 0-.856-.353c-.335 0-.621.118-.858.354a1.17 1.17 0 0 0-.353.858c0 .334.117.62.355.856.234.236.52.355.856.355.335 0 .62-.119.856-.355v-.001zm1.151 1.148a2.727 2.727 0 0 1-2.007.83 2.73 2.73 0 0 1-2.004-.83 2.73 2.73 0 0 1-.83-2.003c0-.782.277-1.45.83-2.004a2.73 2.73 0 0 1 2.004-.83c.782 0 1.45.277 2.002.83a2.73 2.73 0 0 1 .832 2.004c0 .781-.277 1.45-.827 2.003zm6.253 2.685a1.167 1.167 0 0 0-.856-.355 1.17 1.17 0 0 0-.858.355 1.167 1.167 0 0 0-.354.857c0 .335.117.62.354.858.236.235.522.353.858.353.334 0 .62-.118.855-.355a1.16 1.16 0 0 0 .356-.856c0-.335-.119-.621-.356-.857h.001zm1.147 2.86a2.73 2.73 0 0 1-2.002.83 2.73 2.73 0 0 1-2.005-.83 2.73 2.73 0 0 1-.83-2.003c0-.787.277-1.456.83-2.007a2.736 2.736 0 0 1 2.004-.827c.782 0 1.45.278 2.002.832.555.553.832 1.22.832 2.002a2.73 2.73 0 0 1-.832 2.004zM13.636 5.834h1.158L8.641 17.167H7.458l6.18-11.335-.002.002z"/>
    </g>
</svg>
